<?xml version="1.0" encoding="UTF-8" standalone="no"?>
<!-- Created with matplotlib (http://matplotlib.org/) -->

<svg
   xmlns:dc="http://purl.org/dc/elements/1.1/"
   xmlns:cc="http://creativecommons.org/ns#"
   xmlns:rdf="http://www.w3.org/1999/02/22-rdf-syntax-ns#"
   xmlns:svg="http://www.w3.org/2000/svg"
   xmlns="http://www.w3.org/2000/svg"
   xmlns:xlink="http://www.w3.org/1999/xlink"
   xmlns:sodipodi="http://sodipodi.sourceforge.net/DTD/sodipodi-0.dtd"
   xmlns:inkscape="http://www.inkscape.org/namespaces/inkscape"
   height="252pt"
   version="1.1"
   viewBox="0 0 432 252"
   width="432pt"
   id="svg977"
   sodipodi:docname="C_exp.svg"
   inkscape:version="0.92.2 5c3e80d, 2017-08-06">
  <sodipodi:namedview
     pagecolor="#ffffff"
     bordercolor="#666666"
     borderopacity="1"
     objecttolerance="10"
     gridtolerance="10"
     guidetolerance="10"
     inkscape:pageopacity="0"
     inkscape:pageshadow="2"
     inkscape:window-width="1707"
     inkscape:window-height="1169"
     id="namedview979"
     showgrid="false"
     inkscape:zoom="0.70710678"
     inkscape:cx="109"
     inkscape:cy="168"
     inkscape:window-x="0"
     inkscape:window-y="0"
     inkscape:window-maximized="0"
     inkscape:current-layer="svg977" />
  <metadata
     id="metadata981">
    <rdf:RDF>
      <cc:Work
         rdf:about="">
        <dc:format>image/svg+xml</dc:format>
        <dc:type
           rdf:resource="http://purl.org/dc/dcmitype/StillImage" />
        <dc:title></dc:title>
      </cc:Work>
    </rdf:RDF>
  </metadata>
  <defs
     id="defs508">
    <marker
       inkscape:isstock="true"
       style="overflow:visible"
       id="marker8754"
       refX="0.0"
       refY="0.0"
       orient="auto"
       inkscape:stockid="Arrow2Mstart">
      <path
         transform="scale(0.6) translate(0,0)"
         d="M 8.7185878,4.0337352 L -2.2072895,0.016013256 L 8.7185884,-4.0017078 C 6.9730900,-1.6296469 6.9831476,1.6157441 8.7185878,4.0337352 z "
         style="fill-rule:evenodd;stroke-width:0.625;stroke-linejoin:round;stroke:#000000;stroke-opacity:1;fill:#000000;fill-opacity:1"
         id="path8752" />
    </marker>
    <marker
       inkscape:stockid="Arrow2Mstart"
       orient="auto"
       refY="0.0"
       refX="0.0"
       id="marker6536"
       style="overflow:visible"
       inkscape:isstock="true"
       inkscape:collect="always">
      <path
         id="path6534"
         style="fill-rule:evenodd;stroke-width:0.625;stroke-linejoin:round;stroke:#000000;stroke-opacity:1;fill:#000000;fill-opacity:1"
         d="M 8.7185878,4.0337352 L -2.2072895,0.016013256 L 8.7185884,-4.0017078 C 6.9730900,-1.6296469 6.9831476,1.6157441 8.7185878,4.0337352 z "
         transform="scale(0.6) translate(0,0)" />
    </marker>
    <marker
       inkscape:isstock="true"
       style="overflow:visible"
       id="Arrow2Mstart"
       refX="0.0"
       refY="0.0"
       orient="auto"
       inkscape:stockid="Arrow2Mstart"
       inkscape:collect="always">
      <path
         transform="scale(0.6) translate(0,0)"
         d="M 8.7185878,4.0337352 L -2.2072895,0.016013256 L 8.7185884,-4.0017078 C 6.9730900,-1.6296469 6.9831476,1.6157441 8.7185878,4.0337352 z "
         style="fill-rule:evenodd;stroke-width:0.625;stroke-linejoin:round;stroke:#000000;stroke-opacity:1;fill:#000000;fill-opacity:1"
         id="path5503" />
    </marker>
    <marker
       inkscape:isstock="true"
       style="overflow:visible"
       id="Arrow1Lstart"
       refX="0.0"
       refY="0.0"
       orient="auto"
       inkscape:stockid="Arrow1Lstart">
      <path
         transform="scale(0.8) translate(12.5,0)"
         style="fill-rule:evenodd;stroke:#000000;stroke-width:1pt;stroke-opacity:1;fill:#000000;fill-opacity:1"
         d="M 0.0,0.0 L 5.0,-5.0 L -12.5,0.0 L 5.0,5.0 L 0.0,0.0 z "
         id="path5479" />
    </marker>
    <style
       id="style506"
       type="text/css">
*{stroke-linecap:butt;stroke-linejoin:round;}
  </style>
  </defs>
  <g
     id="figure_1">
    <g
       id="patch_1">
      <path
         id="path510"
         style="fill:#ffffff;"
         d="M 0 252  L 432 252  L 432 0  L 0 0  z " />
    </g>
    <g
       id="axes_1">
      <g
         id="patch_2">
        <path
           id="path513"
           style="fill:#ffffff;"
           d="M 70.85446 190.28  L 415.48 190.28  L 415.48 16.52  L 70.85446 16.52  z " />
      </g>
      <g
         id="matplotlib.axis_1">
        <g
           id="xtick_1">
          <g
             id="line2d_1">
            <path
               id="path516"
               style="fill:none;stroke:#b0b0b0;stroke-linecap:square;stroke-width:0.8;"
               d="M 86.519257 190.28  L 86.519257 16.52  "
               clip-path="url(#pe6a025513e)" />
          </g>
          <g
             id="line2d_2">
            <defs
               id="defs520">
              <path
                 style="stroke:#000000;stroke-width:0.8;"
                 id="m9d10209b38"
                 d="M 0 0  L 0 3.5  " />
            </defs>
            <g
               id="g524">
              <use
                 id="use522"
                 y="190.28"
                 xlink:href="#m9d10209b38"
                 x="86.519257"
                 style="stroke:#000000;stroke-width:0.8;" />
            </g>
          </g>
          <g
             id="text_1">
            <!-- 50 -->
            <defs
               id="defs529">
              <path
                 id="DejaVuSerif-35"
                 d="M 50.296875 72.90625  L 50.296875 64.890625  L 16.890625 64.890625  L 16.890625 44  Q 19.4375 45.75 22.828125 46.625  Q 26.21875 47.515625 30.421875 47.515625  Q 42.234375 47.515625 49.0625 40.96875  Q 55.90625 34.421875 55.90625 23.09375  Q 55.90625 11.53125 49 5.046875  Q 42.09375 -1.421875 29.59375 -1.421875  Q 24.5625 -1.421875 19.28125 -0.1875  Q 14.015625 1.03125 8.5 3.515625  L 8.5 17.671875  L 14.015625 17.671875  Q 14.453125 10.75 18.421875 7.078125  Q 22.40625 3.421875 29.59375 3.421875  Q 37.3125 3.421875 41.453125 8.5  Q 45.609375 13.578125 45.609375 23.09375  Q 45.609375 32.5625 41.484375 37.609375  Q 37.359375 42.671875 29.59375 42.671875  Q 25.203125 42.671875 21.84375 41.109375  Q 18.5 39.546875 15.921875 36.28125  L 11.71875 36.28125  L 11.71875 72.90625  z " />
              <path
                 id="DejaVuSerif-30"
                 d="M 31.78125 3.421875  Q 39.265625 3.421875 42.96875 11.625  Q 46.6875 19.828125 46.6875 36.375  Q 46.6875 52.984375 42.96875 61.1875  Q 39.265625 69.390625 31.78125 69.390625  Q 24.3125 69.390625 20.59375 61.1875  Q 16.890625 52.984375 16.890625 36.375  Q 16.890625 19.828125 20.59375 11.625  Q 24.3125 3.421875 31.78125 3.421875  z M 31.78125 -1.421875  Q 19.921875 -1.421875 13.25 8.53125  Q 6.59375 18.5 6.59375 36.375  Q 6.59375 54.296875 13.25 64.25  Q 19.921875 74.21875 31.78125 74.21875  Q 43.703125 74.21875 50.34375 64.25  Q 56.984375 54.296875 56.984375 36.375  Q 56.984375 18.5 50.34375 8.53125  Q 43.703125 -1.421875 31.78125 -1.421875  z " />
            </defs>
            <g
               id="g535"
               transform="translate(79.09931 206.141298)scale(0.11662 -0.11662)">
              <use
                 id="use531"
                 xlink:href="#DejaVuSerif-35" />
              <use
                 id="use533"
                 xlink:href="#DejaVuSerif-30"
                 x="63.623047" />
            </g>
          </g>
        </g>
        <g
           id="xtick_2">
          <g
             id="line2d_3">
            <path
               id="path539"
               style="fill:none;stroke:#b0b0b0;stroke-linecap:square;stroke-width:0.8;"
               d="M 125.68125 190.28  L 125.68125 16.52  "
               clip-path="url(#pe6a025513e)" />
          </g>
          <g
             id="line2d_4">
            <g
               id="g544">
              <use
                 id="use542"
                 y="190.28"
                 xlink:href="#m9d10209b38"
                 x="125.68125"
                 style="stroke:#000000;stroke-width:0.8;" />
            </g>
          </g>
          <g
             id="text_2">
            <!-- 75 -->
            <defs
               id="defs548">
              <path
                 id="DejaVuSerif-37"
                 d="M 56.390625 67.921875  L 27.875 0  L 20.609375 0  L 47.796875 64.890625  L 14.109375 64.890625  L 14.109375 55.90625  L 8.40625 55.90625  L 8.40625 72.90625  L 56.390625 72.90625  z " />
            </defs>
            <g
               id="g554"
               transform="translate(118.261303 206.141298)scale(0.11662 -0.11662)">
              <use
                 id="use550"
                 xlink:href="#DejaVuSerif-37" />
              <use
                 id="use552"
                 xlink:href="#DejaVuSerif-35"
                 x="63.623047" />
            </g>
          </g>
        </g>
        <g
           id="xtick_3">
          <g
             id="line2d_5">
            <path
               id="path558"
               style="fill:none;stroke:#b0b0b0;stroke-linecap:square;stroke-width:0.8;"
               d="M 164.843244 190.28  L 164.843244 16.52  "
               clip-path="url(#pe6a025513e)" />
          </g>
          <g
             id="line2d_6">
            <g
               id="g563">
              <use
                 id="use561"
                 y="190.28"
                 xlink:href="#m9d10209b38"
                 x="164.843244"
                 style="stroke:#000000;stroke-width:0.8;" />
            </g>
          </g>
          <g
             id="text_3">
            <!-- 100 -->
            <defs
               id="defs567">
              <path
                 id="DejaVuSerif-31"
                 d="M 14.203125 0  L 14.203125 5.171875  L 26.90625 5.171875  L 26.90625 65.828125  L 12.203125 56.296875  L 12.203125 62.703125  L 29.984375 74.21875  L 36.71875 74.21875  L 36.71875 5.171875  L 49.421875 5.171875  L 49.421875 0  z " />
            </defs>
            <g
               id="g575"
               transform="translate(153.713322 206.141298)scale(0.11662 -0.11662)">
              <use
                 id="use569"
                 xlink:href="#DejaVuSerif-31" />
              <use
                 id="use571"
                 xlink:href="#DejaVuSerif-30"
                 x="63.623047" />
              <use
                 id="use573"
                 xlink:href="#DejaVuSerif-30"
                 x="127.246094" />
            </g>
          </g>
        </g>
        <g
           id="xtick_4">
          <g
             id="line2d_7">
            <path
               id="path579"
               style="fill:none;stroke:#b0b0b0;stroke-linecap:square;stroke-width:0.8;"
               d="M 204.005237 190.28  L 204.005237 16.52  "
               clip-path="url(#pe6a025513e)" />
          </g>
          <g
             id="line2d_8">
            <g
               id="g584">
              <use
                 id="use582"
                 y="190.28"
                 xlink:href="#m9d10209b38"
                 x="204.005237"
                 style="stroke:#000000;stroke-width:0.8;" />
            </g>
          </g>
          <g
             id="text_4">
            <!-- 125 -->
            <defs
               id="defs588">
              <path
                 id="DejaVuSerif-32"
                 d="M 12.796875 55.515625  L 7.328125 55.515625  L 7.328125 68.5  Q 12.546875 71.296875 17.84375 72.75  Q 23.140625 74.21875 28.21875 74.21875  Q 39.59375 74.21875 46.1875 68.703125  Q 52.78125 63.1875 52.78125 53.71875  Q 52.78125 43.015625 37.84375 28.125  Q 36.671875 27 36.078125 26.421875  L 17.671875 8.015625  L 48.09375 8.015625  L 48.09375 17  L 53.8125 17  L 53.8125 0  L 6.78125 0  L 6.78125 5.328125  L 28.90625 27.390625  Q 36.234375 34.71875 39.359375 40.84375  Q 42.484375 46.96875 42.484375 53.71875  Q 42.484375 61.078125 38.640625 65.234375  Q 34.8125 69.390625 28.078125 69.390625  Q 21.09375 69.390625 17.28125 65.921875  Q 13.484375 62.453125 12.796875 55.515625  z " />
            </defs>
            <g
               id="g596"
               transform="translate(192.875316 206.141298)scale(0.11662 -0.11662)">
              <use
                 id="use590"
                 xlink:href="#DejaVuSerif-31" />
              <use
                 id="use592"
                 xlink:href="#DejaVuSerif-32"
                 x="63.623047" />
              <use
                 id="use594"
                 xlink:href="#DejaVuSerif-35"
                 x="127.246094" />
            </g>
          </g>
        </g>
        <g
           id="xtick_5">
          <g
             id="line2d_9">
            <path
               id="path600"
               style="fill:none;stroke:#b0b0b0;stroke-linecap:square;stroke-width:0.8;"
               d="M 243.16723 190.28  L 243.16723 16.52  "
               clip-path="url(#pe6a025513e)" />
          </g>
          <g
             id="line2d_10">
            <g
               id="g605">
              <use
                 id="use603"
                 y="190.28"
                 xlink:href="#m9d10209b38"
                 x="243.16723"
                 style="stroke:#000000;stroke-width:0.8;" />
            </g>
          </g>
          <g
             id="text_5">
            <!-- 150 -->
            <g
               id="g614"
               transform="translate(232.037309 206.141298)scale(0.11662 -0.11662)">
              <use
                 id="use608"
                 xlink:href="#DejaVuSerif-31" />
              <use
                 id="use610"
                 xlink:href="#DejaVuSerif-35"
                 x="63.623047" />
              <use
                 id="use612"
                 xlink:href="#DejaVuSerif-30"
                 x="127.246094" />
            </g>
          </g>
        </g>
        <g
           id="xtick_6">
          <g
             id="line2d_11">
            <path
               id="path618"
               style="fill:none;stroke:#b0b0b0;stroke-linecap:square;stroke-width:0.8;"
               d="M 282.329223 190.28  L 282.329223 16.52  "
               clip-path="url(#pe6a025513e)" />
          </g>
          <g
             id="line2d_12">
            <g
               id="g623">
              <use
                 id="use621"
                 y="190.28"
                 xlink:href="#m9d10209b38"
                 x="282.329223"
                 style="stroke:#000000;stroke-width:0.8;" />
            </g>
          </g>
          <g
             id="text_6">
            <!-- 175 -->
            <g
               id="g632"
               transform="translate(271.199302 206.141298)scale(0.11662 -0.11662)">
              <use
                 id="use626"
                 xlink:href="#DejaVuSerif-31" />
              <use
                 id="use628"
                 xlink:href="#DejaVuSerif-37"
                 x="63.623047" />
              <use
                 id="use630"
                 xlink:href="#DejaVuSerif-35"
                 x="127.246094" />
            </g>
          </g>
        </g>
        <g
           id="xtick_7">
          <g
             id="line2d_13">
            <path
               id="path636"
               style="fill:none;stroke:#b0b0b0;stroke-linecap:square;stroke-width:0.8;"
               d="M 321.491216 190.28  L 321.491216 16.52  "
               clip-path="url(#pe6a025513e)" />
          </g>
          <g
             id="line2d_14">
            <g
               id="g641">
              <use
                 id="use639"
                 y="190.28"
                 xlink:href="#m9d10209b38"
                 x="321.491216"
                 style="stroke:#000000;stroke-width:0.8;" />
            </g>
          </g>
          <g
             id="text_7">
            <!-- 200 -->
            <g
               id="g650"
               transform="translate(310.361295 206.141298)scale(0.11662 -0.11662)">
              <use
                 id="use644"
                 xlink:href="#DejaVuSerif-32" />
              <use
                 id="use646"
                 xlink:href="#DejaVuSerif-30"
                 x="63.623047" />
              <use
                 id="use648"
                 xlink:href="#DejaVuSerif-30"
                 x="127.246094" />
            </g>
          </g>
        </g>
        <g
           id="xtick_8">
          <g
             id="line2d_15">
            <path
               id="path654"
               style="fill:none;stroke:#b0b0b0;stroke-linecap:square;stroke-width:0.8;"
               d="M 360.65321 190.28  L 360.65321 16.52  "
               clip-path="url(#pe6a025513e)" />
          </g>
          <g
             id="line2d_16">
            <g
               id="g659">
              <use
                 id="use657"
                 y="190.28"
                 xlink:href="#m9d10209b38"
                 x="360.65321"
                 style="stroke:#000000;stroke-width:0.8;" />
            </g>
          </g>
          <g
             id="text_8">
            <!-- 225 -->
            <g
               id="g668"
               transform="translate(349.523288 206.141298)scale(0.11662 -0.11662)">
              <use
                 id="use662"
                 xlink:href="#DejaVuSerif-32" />
              <use
                 id="use664"
                 xlink:href="#DejaVuSerif-32"
                 x="63.623047" />
              <use
                 id="use666"
                 xlink:href="#DejaVuSerif-35"
                 x="127.246094" />
            </g>
          </g>
        </g>
        <g
           id="xtick_9">
          <g
             id="line2d_17">
            <path
               id="path672"
               style="fill:none;stroke:#b0b0b0;stroke-linecap:square;stroke-width:0.8;"
               d="M 399.815203 190.28  L 399.815203 16.52  "
               clip-path="url(#pe6a025513e)" />
          </g>
          <g
             id="line2d_18">
            <g
               id="g677">
              <use
                 id="use675"
                 y="190.28"
                 xlink:href="#m9d10209b38"
                 x="399.815203"
                 style="stroke:#000000;stroke-width:0.8;" />
            </g>
          </g>
          <g
             id="text_9">
            <!-- 250 -->
            <g
               id="g686"
               transform="translate(388.685281 206.141298)scale(0.11662 -0.11662)">
              <use
                 id="use680"
                 xlink:href="#DejaVuSerif-32" />
              <use
                 id="use682"
                 xlink:href="#DejaVuSerif-35"
                 x="63.623047" />
              <use
                 id="use684"
                 xlink:href="#DejaVuSerif-30"
                 x="127.246094" />
            </g>
          </g>
        </g>
        <g
           id="text_10">
          <!-- $T_t/M_w$ -->
          <defs
             id="defs695">
            <path
               id="Cmmi10-54"
               d="M 4.59375 1.3125  Q 4.640625 1.5625 4.8125 2.1875  Q 4.984375 2.828125 5.25 3.171875  Q 5.515625 3.515625 6 3.515625  Q 14.59375 3.515625 17.390625 4  Q 20.0625 4.6875 20.609375 6.890625  L 34.28125 61.8125  Q 34.71875 63.03125 34.71875 64.015625  Q 34.71875 64.796875 31.203125 64.796875  L 25.390625 64.796875  Q 18.703125 64.796875 15.0625 62.734375  Q 11.421875 60.6875 9.71875 57.3125  Q 8.015625 53.953125 5.328125 46.296875  Q 4.984375 45.40625 4.296875 45.40625  L 3.421875 45.40625  Q 2.390625 45.40625 2.390625 46.6875  L 9.515625 67.390625  Q 9.71875 68.3125 10.5 68.3125  L 69.578125 68.3125  Q 70.609375 68.3125 70.609375 67  L 67.28125 46.296875  Q 67.28125 46 66.9375 45.703125  Q 66.609375 45.40625 66.3125 45.40625  L 65.375 45.40625  Q 64.40625 45.40625 64.40625 46.6875  Q 65.484375 53.765625 65.484375 56.6875  Q 65.484375 60.203125 64.015625 62  Q 62.546875 63.8125 60.203125 64.296875  Q 57.859375 64.796875 54.109375 64.796875  L 48.1875 64.796875  Q 45.515625 64.796875 44.578125 64.296875  Q 43.65625 63.8125 43.015625 61.375  L 29.296875 6.5  Q 29.25 6.296875 29.21875 6.09375  Q 29.203125 5.90625 29.109375 5.609375  Q 29.109375 4.34375 30.609375 4  Q 33.203125 3.515625 41.703125 3.515625  Q 42.671875 3.515625 42.671875 2.203125  Q 42.328125 0.78125 42.125 0.390625  Q 41.9375 0 41.015625 0  L 5.609375 0  Q 4.59375 0 4.59375 1.3125  z " />
            <path
               id="Cmmi10-74"
               d="M 6.203125 8.109375  Q 6.203125 9.578125 6.5 10.890625  L 13.71875 39.59375  L 3.21875 39.59375  Q 2.203125 39.59375 2.203125 40.921875  Q 2.59375 43.109375 3.515625 43.109375  L 14.59375 43.109375  L 18.609375 59.421875  Q 19 60.75 20.171875 61.671875  Q 21.34375 62.59375 22.796875 62.59375  Q 24.078125 62.59375 24.921875 61.828125  Q 25.78125 61.078125 25.78125 59.8125  Q 25.78125 59.515625 25.75 59.34375  Q 25.734375 59.1875 25.6875 58.984375  L 21.6875 43.109375  L 31.984375 43.109375  Q 33.015625 43.109375 33.015625 41.796875  Q 32.953125 41.546875 32.8125 40.953125  Q 32.671875 40.375 32.421875 39.984375  Q 32.171875 39.59375 31.6875 39.59375  L 20.796875 39.59375  L 13.625 10.6875  Q 12.890625 7.859375 12.890625 5.8125  Q 12.890625 1.515625 15.828125 1.515625  Q 20.21875 1.515625 23.609375 5.640625  Q 27 9.765625 28.8125 14.703125  Q 29.203125 15.28125 29.59375 15.28125  L 30.8125 15.28125  Q 31.203125 15.28125 31.4375 15.015625  Q 31.6875 14.75 31.6875 14.40625  Q 31.6875 14.203125 31.59375 14.109375  Q 29.390625 8.0625 25.1875 3.46875  Q 21 -1.125 15.578125 -1.125  Q 11.625 -1.125 8.90625 1.453125  Q 6.203125 4.046875 6.203125 8.109375  z " />
            <path
               id="Cmmi10-3d"
               d="M 5.609375 -23  Q 5.609375 -22.703125 5.71875 -22.609375  L 40.484375 73.78125  Q 40.671875 74.359375 41.15625 74.671875  Q 41.65625 75 42.28125 75  Q 43.171875 75 43.71875 74.453125  Q 44.28125 73.921875 44.28125 73  L 44.28125 72.609375  L 9.515625 -23.78125  Q 8.9375 -25 7.625 -25  Q 6.78125 -25 6.1875 -24.40625  Q 5.609375 -23.828125 5.609375 -23  z " />
            <path
               id="Cmmi10-4d"
               d="M 5.078125 0  Q 4.109375 0 4.109375 1.3125  Q 4.15625 1.5625 4.296875 2.140625  Q 4.4375 2.734375 4.6875 3.125  Q 4.9375 3.515625 5.421875 3.515625  Q 14.9375 3.515625 16.5 9.625  L 29.5 61.8125  Q 29.6875 62.796875 29.6875 63.1875  Q 29.6875 64.265625 28.515625 64.40625  Q 26.609375 64.796875 21.296875 64.796875  Q 20.3125 64.796875 20.3125 66.109375  Q 20.359375 66.359375 20.5 66.96875  Q 20.65625 67.578125 20.921875 67.9375  Q 21.1875 68.3125 21.578125 68.3125  L 39.203125 68.3125  Q 40.328125 68.3125 40.484375 67.1875  L 48.296875 9.90625  L 84.71875 67.1875  Q 85.40625 68.3125 86.625 68.3125  L 103.609375 68.3125  Q 104.59375 68.3125 104.59375 67  Q 104.546875 66.75 104.390625 66.140625  Q 104.25 65.53125 103.984375 65.15625  Q 103.71875 64.796875 103.328125 64.796875  Q 97.21875 64.796875 94.828125 64.109375  Q 93.5 63.671875 92.921875 61.375  L 79.203125 6.5  Q 79 5.515625 79 5.078125  Q 79 4.6875 79.125 4.421875  Q 79.25 4.15625 79.46875 4.078125  Q 79.6875 4 80.171875 3.90625  Q 82.078125 3.515625 87.40625 3.515625  Q 88.375 3.515625 88.375 2.203125  Q 88.03125 0.78125 87.828125 0.390625  Q 87.640625 0 86.71875 0  L 60.59375 0  Q 59.625 0 59.625 1.3125  Q 59.671875 1.5625 59.8125 2.171875  Q 59.96875 2.78125 60.234375 3.140625  Q 60.5 3.515625 60.890625 3.515625  Q 67 3.515625 69.390625 4.203125  Q 70.703125 4.640625 71.296875 6.890625  L 85.6875 64.796875  L 45.3125 1.125  Q 44.734375 0 43.3125 0  Q 42.046875 0 41.890625 1.125  L 33.40625 64.015625  L 19.671875 9.1875  Q 19.578125 8.9375 19.53125 8.5625  Q 19.484375 8.203125 19.390625 7.71875  Q 19.390625 5.125 21.65625 4.3125  Q 23.921875 3.515625 27.203125 3.515625  Q 28.21875 3.515625 28.21875 2.203125  Q 27.875 0.875 27.65625 0.4375  Q 27.4375 0 26.515625 0  z " />
            <path
               id="Cmmi10-77"
               d="M 10.796875 11.625  Q 10.796875 13.71875 11.359375 16.453125  Q 11.921875 19.1875 12.59375 21.3125  Q 13.28125 23.4375 14.90625 27.828125  Q 16.546875 32.234375 16.703125 32.625  Q 18.015625 36.28125 18.015625 38.625  Q 18.015625 41.609375 15.828125 41.609375  Q 11.859375 41.609375 9.296875 37.53125  Q 6.734375 33.453125 5.515625 28.421875  Q 5.328125 27.78125 4.6875 27.78125  L 3.515625 27.78125  Q 2.6875 27.78125 2.6875 28.71875  L 2.6875 29  Q 4.296875 34.96875 7.609375 39.578125  Q 10.9375 44.1875 16.015625 44.1875  Q 19.578125 44.1875 22.046875 41.84375  Q 24.515625 39.5 24.515625 35.890625  Q 24.515625 34.03125 23.6875 31.984375  Q 22.515625 28.953125 20.921875 24.703125  Q 19.34375 20.453125 18.453125 16.984375  Q 17.578125 13.53125 17.578125 10.296875  Q 17.578125 6.390625 19.625 3.953125  Q 21.6875 1.515625 25.59375 1.515625  Q 30.90625 1.515625 34.421875 9.625  Q 34.28125 10.203125 34.28125 11.28125  Q 34.28125 13.96875 35.109375 17.390625  L 40.71875 39.890625  Q 41.0625 41.21875 42.28125 42.15625  Q 43.5 43.109375 44.921875 43.109375  Q 46.09375 43.109375 47 42.328125  Q 47.90625 41.546875 47.90625 40.28125  Q 47.90625 39.703125 47.796875 39.5  L 42.1875 17.1875  Q 41.21875 13.1875 41.21875 10.015625  Q 41.21875 6.25 42.9375 3.875  Q 44.671875 1.515625 48.390625 1.515625  Q 54.828125 1.515625 58.984375 10.015625  Q 60.546875 13.03125 62.46875 18.9375  Q 64.40625 24.859375 64.40625 27.984375  Q 64.40625 30.859375 63.46875 32.546875  Q 62.546875 34.234375 60.90625 36.1875  Q 59.28125 38.140625 59.28125 39.109375  Q 59.28125 41.015625 60.90625 42.640625  Q 62.546875 44.28125 64.5 44.28125  Q 66.890625 44.28125 67.9375 42.078125  Q 69 39.890625 69 37.109375  Q 69 33.734375 67.875 28.53125  Q 66.75 23.34375 65.03125 18.09375  Q 63.328125 12.84375 61.8125 9.71875  Q 56.34375 -1.125 48.1875 -1.125  Q 44 -1.125 40.53125 0.484375  Q 37.0625 2.09375 35.40625 5.609375  Q 33.796875 2.734375 31.171875 0.796875  Q 28.5625 -1.125 25.390625 -1.125  Q 18.796875 -1.125 14.796875 2.015625  Q 10.796875 5.171875 10.796875 11.625  z " />
          </defs>
          <g
             id="g707"
             transform="translate(213.53203 227.686629)scale(0.2016 -0.2016)">
            <use
               id="use697"
               xlink:href="#Cmmi10-54" />
            <use
               id="use699"
               xlink:href="#Cmmi10-74"
               transform="translate(58.398438 -17.00625)scale(0.7)" />
            <use
               id="use701"
               xlink:href="#Cmmi10-3d"
               transform="translate(90.03457 0)" />
            <use
               id="use703"
               xlink:href="#Cmmi10-4d"
               transform="translate(140.03457 0)" />
            <use
               id="use705"
               xlink:href="#Cmmi10-77"
               transform="translate(237.056055 -17.00625)scale(0.7)" />
          </g>
        </g>
      </g>
      <g
         id="matplotlib.axis_2">
        <g
           id="ytick_1">
          <g
             id="line2d_19">
            <path
               id="path711"
               style="fill:none;stroke:#b0b0b0;stroke-linecap:square;stroke-width:0.8;"
               d="M 70.85446 167.783662  L 415.48 167.783662  "
               clip-path="url(#pe6a025513e)" />
          </g>
          <g
             id="line2d_20">
            <defs
               id="defs715">
              <path
                 style="stroke:#000000;stroke-width:0.8;"
                 id="m175bf0b5a6"
                 d="M 0 0  L -3.5 0  " />
            </defs>
            <g
               id="g719">
              <use
                 id="use717"
                 y="167.783662"
                 xlink:href="#m175bf0b5a6"
                 x="70.85446"
                 style="stroke:#000000;stroke-width:0.8;" />
            </g>
          </g>
          <g
             id="text_11">
            <!-- 150 -->
            <g
               id="g728"
               transform="translate(41.594618 172.214311)scale(0.11662 -0.11662)">
              <use
                 id="use722"
                 xlink:href="#DejaVuSerif-31" />
              <use
                 id="use724"
                 xlink:href="#DejaVuSerif-35"
                 x="63.623047" />
              <use
                 id="use726"
                 xlink:href="#DejaVuSerif-30"
                 x="127.246094" />
            </g>
          </g>
        </g>
        <g
           id="ytick_2">
          <g
             id="line2d_21">
            <path
               id="path732"
               style="fill:none;stroke:#b0b0b0;stroke-linecap:square;stroke-width:0.8;"
               d="M 70.85446 139.467988  L 415.48 139.467988  "
               clip-path="url(#pe6a025513e)" />
          </g>
          <g
             id="line2d_22">
            <g
               id="g737">
              <use
                 id="use735"
                 y="139.467988"
                 xlink:href="#m175bf0b5a6"
                 x="70.85446"
                 style="stroke:#000000;stroke-width:0.8;" />
            </g>
          </g>
          <g
             id="text_12">
            <!-- 200 -->
            <g
               id="g746"
               transform="translate(41.594618 143.898637)scale(0.11662 -0.11662)">
              <use
                 id="use740"
                 xlink:href="#DejaVuSerif-32" />
              <use
                 id="use742"
                 xlink:href="#DejaVuSerif-30"
                 x="63.623047" />
              <use
                 id="use744"
                 xlink:href="#DejaVuSerif-30"
                 x="127.246094" />
            </g>
          </g>
        </g>
        <g
           id="ytick_3">
          <g
             id="line2d_23">
            <path
               id="path750"
               style="fill:none;stroke:#b0b0b0;stroke-linecap:square;stroke-width:0.8;"
               d="M 70.85446 111.152314  L 415.48 111.152314  "
               clip-path="url(#pe6a025513e)" />
          </g>
          <g
             id="line2d_24">
            <g
               id="g755">
              <use
                 id="use753"
                 y="111.152314"
                 xlink:href="#m175bf0b5a6"
                 x="70.85446"
                 style="stroke:#000000;stroke-width:0.8;" />
            </g>
          </g>
          <g
             id="text_13">
            <!-- 250 -->
            <g
               id="g764"
               transform="translate(41.594618 115.582963)scale(0.11662 -0.11662)">
              <use
                 id="use758"
                 xlink:href="#DejaVuSerif-32" />
              <use
                 id="use760"
                 xlink:href="#DejaVuSerif-35"
                 x="63.623047" />
              <use
                 id="use762"
                 xlink:href="#DejaVuSerif-30"
                 x="127.246094" />
            </g>
          </g>
        </g>
        <g
           id="ytick_4">
          <g
             id="line2d_25">
            <path
               id="path768"
               style="fill:none;stroke:#b0b0b0;stroke-linecap:square;stroke-width:0.8;"
               d="M 70.85446 82.83664  L 415.48 82.83664  "
               clip-path="url(#pe6a025513e)" />
          </g>
          <g
             id="line2d_26">
            <g
               id="g773">
              <use
                 id="use771"
                 y="82.83664"
                 xlink:href="#m175bf0b5a6"
                 x="70.85446"
                 style="stroke:#000000;stroke-width:0.8;" />
            </g>
          </g>
          <g
             id="text_14">
            <!-- 300 -->
            <defs
               id="defs777">
              <path
                 id="DejaVuSerif-33"
                 d="M 9.71875 69.828125  Q 15.4375 71.96875 20.671875 73.09375  Q 25.921875 74.21875 30.515625 74.21875  Q 41.21875 74.21875 47.21875 69.59375  Q 53.21875 64.984375 53.21875 56.78125  Q 53.21875 50.203125 49.0625 45.78125  Q 44.921875 41.359375 37.3125 39.796875  Q 46.296875 38.53125 51.25 33.28125  Q 56.203125 28.03125 56.203125 19.671875  Q 56.203125 9.46875 49.34375 4.015625  Q 42.484375 -1.421875 29.59375 -1.421875  Q 23.875 -1.421875 18.421875 -0.1875  Q 12.984375 1.03125 7.625 3.515625  L 7.625 17.671875  L 13.09375 17.671875  Q 13.578125 10.640625 17.828125 7.03125  Q 22.078125 3.421875 29.78125 3.421875  Q 37.25 3.421875 41.578125 7.734375  Q 45.90625 12.0625 45.90625 19.578125  Q 45.90625 28.171875 41.453125 32.59375  Q 37.015625 37.015625 28.421875 37.015625  L 23.78125 37.015625  L 23.78125 42  L 26.21875 42  Q 34.765625 42 39.03125 45.53125  Q 43.3125 49.078125 43.3125 56.203125  Q 43.3125 62.59375 39.796875 65.984375  Q 36.28125 69.390625 29.6875 69.390625  Q 23.09375 69.390625 19.453125 66.265625  Q 15.828125 63.140625 15.1875 56.984375  L 9.71875 56.984375  z " />
            </defs>
            <g
               id="g785"
               transform="translate(41.594618 87.267289)scale(0.11662 -0.11662)">
              <use
                 id="use779"
                 xlink:href="#DejaVuSerif-33" />
              <use
                 id="use781"
                 xlink:href="#DejaVuSerif-30"
                 x="63.623047" />
              <use
                 id="use783"
                 xlink:href="#DejaVuSerif-30"
                 x="127.246094" />
            </g>
          </g>
        </g>
        <g
           id="ytick_5">
          <g
             id="line2d_27">
            <path
               id="path789"
               style="fill:none;stroke:#b0b0b0;stroke-linecap:square;stroke-width:0.8;"
               d="M 70.85446 54.520966  L 415.48 54.520966  "
               clip-path="url(#pe6a025513e)" />
          </g>
          <g
             id="line2d_28">
            <g
               id="g794">
              <use
                 id="use792"
                 y="54.520966"
                 xlink:href="#m175bf0b5a6"
                 x="70.85446"
                 style="stroke:#000000;stroke-width:0.8;" />
            </g>
          </g>
          <g
             id="text_15">
            <!-- 350 -->
            <g
               id="g803"
               transform="translate(41.594618 58.951615)scale(0.11662 -0.11662)">
              <use
                 id="use797"
                 xlink:href="#DejaVuSerif-33" />
              <use
                 id="use799"
                 xlink:href="#DejaVuSerif-35"
                 x="63.623047" />
              <use
                 id="use801"
                 xlink:href="#DejaVuSerif-30"
                 x="127.246094" />
            </g>
          </g>
        </g>
        <g
           id="ytick_6">
          <g
             id="line2d_29">
            <path
               id="path807"
               style="fill:none;stroke:#b0b0b0;stroke-linecap:square;stroke-width:0.8;"
               d="M 70.85446 26.205292  L 415.48 26.205292  "
               clip-path="url(#pe6a025513e)" />
          </g>
          <g
             id="line2d_30">
            <g
               id="g812">
              <use
                 id="use810"
                 y="26.205292"
                 xlink:href="#m175bf0b5a6"
                 x="70.85446"
                 style="stroke:#000000;stroke-width:0.8;" />
            </g>
          </g>
          <g
             id="text_16">
            <!-- 400 -->
            <defs
               id="defs816">
              <path
                 id="DejaVuSerif-34"
                 d="M 34.90625 24.703125  L 34.90625 63.484375  L 10.015625 24.703125  z M 56.390625 0  L 23.1875 0  L 23.1875 5.171875  L 34.90625 5.171875  L 34.90625 19.484375  L 3.078125 19.484375  L 3.078125 24.8125  L 35.015625 74.21875  L 44.671875 74.21875  L 44.671875 24.703125  L 58.59375 24.703125  L 58.59375 19.484375  L 44.671875 19.484375  L 44.671875 5.171875  L 56.390625 5.171875  z " />
            </defs>
            <g
               id="g824"
               transform="translate(41.594618 30.635941)scale(0.11662 -0.11662)">
              <use
                 id="use818"
                 xlink:href="#DejaVuSerif-34" />
              <use
                 id="use820"
                 xlink:href="#DejaVuSerif-30"
                 x="63.623047" />
              <use
                 id="use822"
                 xlink:href="#DejaVuSerif-30"
                 x="127.246094" />
            </g>
          </g>
        </g>
        <g
           id="text_17">
          <!-- $I_{sp}$ -->
          <defs
             id="defs831">
            <path
               id="Cmmi10-49"
               d="M 4.203125 0  Q 3.21875 0 3.21875 1.3125  Q 3.609375 3.515625 4.5 3.515625  Q 10.40625 3.515625 12.5 3.90625  Q 14.796875 4.4375 15.375 6.890625  L 29.109375 61.8125  Q 29.296875 62.796875 29.296875 63.09375  Q 29.296875 63.71875 28.96875 63.984375  Q 28.65625 64.265625 27.984375 64.40625  Q 25.984375 64.796875 20.40625 64.796875  Q 19.390625 64.796875 19.390625 66.109375  Q 19.734375 67.390625 19.921875 67.84375  Q 20.125 68.3125 21.09375 68.3125  L 49.03125 68.3125  Q 50 68.3125 50 67  Q 49.953125 66.75 49.796875 66.15625  Q 49.65625 65.578125 49.40625 65.1875  Q 49.171875 64.796875 48.6875 64.796875  Q 42.828125 64.796875 40.578125 64.40625  Q 38.375 63.875 37.796875 61.375  L 24.125 6.5  Q 23.875 5.28125 23.875 5.171875  Q 23.875 4.9375 23.953125 4.71875  Q 24.03125 4.5 24.25 4.328125  Q 24.46875 4.15625 24.6875 4.078125  Q 24.90625 4 25.203125 3.90625  Q 27.09375 3.515625 32.8125 3.515625  Q 33.796875 3.515625 33.796875 2.203125  Q 33.453125 0.78125 33.25 0.390625  Q 33.0625 0 32.078125 0  z " />
            <path
               id="Cmmi10-73"
               d="M 8.6875 6.109375  Q 11.375 1.515625 19.484375 1.515625  Q 23 1.515625 26.171875 2.703125  Q 29.34375 3.90625 31.421875 6.296875  Q 33.5 8.6875 33.5 12.109375  Q 33.5 14.703125 31.640625 16.359375  Q 29.78125 18.015625 27.09375 18.609375  L 21.6875 19.671875  Q 17.96875 20.609375 15.578125 23.140625  Q 13.1875 25.6875 13.1875 29.296875  Q 13.1875 33.734375 15.59375 37.15625  Q 18.015625 40.578125 21.96875 42.375  Q 25.921875 44.1875 30.171875 44.1875  Q 34.71875 44.1875 38.296875 42.015625  Q 41.890625 39.84375 41.890625 35.59375  Q 41.890625 33.296875 40.59375 31.53125  Q 39.3125 29.78125 37.015625 29.78125  Q 35.6875 29.78125 34.734375 30.640625  Q 33.796875 31.5 33.796875 32.8125  Q 33.796875 33.984375 34.453125 35.078125  Q 35.109375 36.1875 36.203125 36.84375  Q 37.3125 37.5 38.484375 37.5  Q 37.59375 39.65625 35.171875 40.625  Q 32.765625 41.609375 29.984375 41.609375  Q 27.4375 41.609375 24.890625 40.578125  Q 22.359375 39.546875 20.8125 37.5625  Q 19.28125 35.59375 19.28125 32.90625  Q 19.28125 31.109375 20.546875 29.734375  Q 21.828125 28.375 23.6875 27.78125  L 29.5 26.609375  Q 32.28125 26.03125 34.59375 24.53125  Q 36.921875 23.046875 38.25 20.765625  Q 39.59375 18.5 39.59375 15.578125  Q 39.59375 11.859375 37.515625 8.25  Q 35.453125 4.640625 32.421875 2.484375  Q 27.09375 -1.125 19.390625 -1.125  Q 14.0625 -1.125 9.609375 1.3125  Q 5.171875 3.765625 5.171875 8.59375  Q 5.171875 11.328125 6.75 13.34375  Q 8.34375 15.375 11.078125 15.375  Q 12.703125 15.375 13.796875 14.390625  Q 14.890625 13.421875 14.890625 11.8125  Q 14.890625 9.515625 13.171875 7.8125  Q 11.46875 6.109375 9.1875 6.109375  z " />
            <path
               id="Cmmi10-70"
               d="M -2.484375 -19.390625  Q -3.421875 -19.390625 -3.421875 -18.109375  Q -3.078125 -15.921875 -2.09375 -15.921875  Q 1.03125 -15.921875 2.265625 -15.359375  Q 3.515625 -14.796875 4.203125 -12.5  L 15.484375 32.515625  Q 16.21875 34.375 16.21875 37.3125  Q 16.21875 41.609375 13.28125 41.609375  Q 10.15625 41.609375 8.640625 37.859375  Q 7.125 34.125 5.71875 28.421875  Q 5.71875 27.78125 4.890625 27.78125  L 3.71875 27.78125  Q 3.46875 27.78125 3.171875 28.140625  Q 2.875 28.515625 2.875 28.8125  Q 3.953125 33.15625 4.953125 36.171875  Q 5.953125 39.203125 8.078125 41.6875  Q 10.203125 44.1875 13.375 44.1875  Q 16.796875 44.1875 19.375 42.25  Q 21.96875 40.328125 22.703125 37.015625  Q 25.4375 40.1875 28.75 42.1875  Q 32.078125 44.1875 35.59375 44.1875  Q 39.796875 44.1875 42.890625 41.9375  Q 46 39.703125 47.5625 36.0625  Q 49.125 32.421875 49.125 28.21875  Q 49.125 21.78125 45.828125 14.890625  Q 42.53125 8.015625 36.890625 3.4375  Q 31.25 -1.125 24.8125 -1.125  Q 21.875 -1.125 19.5 0.53125  Q 17.140625 2.203125 15.828125 4.890625  L 11.28125 -12.890625  Q 11.03125 -14.359375 10.984375 -14.59375  Q 10.984375 -15.921875 17.578125 -15.921875  Q 18.609375 -15.921875 18.609375 -17.1875  Q 18.265625 -18.5 18.046875 -18.9375  Q 17.828125 -19.390625 16.890625 -19.390625  z M 24.90625 1.515625  Q 28.375 1.515625 31.34375 4.375  Q 34.328125 7.234375 36.1875 10.796875  Q 37.546875 13.484375 38.734375 17.359375  Q 39.9375 21.234375 40.8125 25.625  Q 41.703125 30.03125 41.703125 32.625  Q 41.703125 34.90625 41.09375 36.90625  Q 40.484375 38.921875 39.09375 40.265625  Q 37.703125 41.609375 35.40625 41.609375  Q 31.734375 41.609375 28.484375 38.984375  Q 25.25 36.375 22.609375 32.515625  L 22.609375 32.171875  L 17.09375 10.109375  Q 17.78125 6.546875 19.734375 4.03125  Q 21.6875 1.515625 24.90625 1.515625  z " />
          </defs>
          <g
             id="g839"
             transform="translate(31.345018 115.3952)rotate(-90)scale(0.2016 -0.2016)">
            <use
               id="use833"
               xlink:href="#Cmmi10-49"
               transform="translate(0 0.6875)" />
            <use
               id="use835"
               xlink:href="#Cmmi10-73"
               transform="translate(43.896484 -16.31875)scale(0.7)" />
            <use
               id="use837"
               xlink:href="#Cmmi10-70"
               transform="translate(76.640625 -16.31875)scale(0.7)" />
          </g>
        </g>
      </g>
      <g
         id="line2d_31">
        <path
           id="path843"
           style="fill:none;stroke:#ff0000;stroke-linecap:square;stroke-width:2;"
           d="M 86.519257 176.860737  L 92.913052 173.824748  L 99.306847 170.901321  L 105.700642 168.078794  L 112.094436 165.347388  L 118.488231 162.698811  L 124.882026 160.125954  L 131.275821 157.622672  L 137.669616 155.183609  L 144.063411 152.804063  L 150.457205 150.479877  L 156.851 148.207359  L 163.244795 145.98321  L 169.63859 143.804465  L 176.032385 141.668454  L 182.426179 139.572755  L 188.819974 137.51517  L 195.213769 135.493691  L 201.607564 133.506482  L 208.001359 131.551856  L 214.395153 129.628263  L 220.788948 127.734268  L 227.182743 125.868547  L 233.576538 124.029869  L 239.970333 122.217092  L 246.364127 120.429152  L 252.757922 118.665053  L 259.151717 116.923868  L 265.545512 115.204726  L 271.939307 113.506811  L 278.333101 111.829354  L 284.726896 110.171634  L 291.120691 108.532971  L 297.514486 106.912721  L 303.908281 105.310277  L 310.302075 103.725066  L 316.69587 102.156543  L 323.089665 100.604191  L 329.48346 99.067521  L 335.877255 97.546066  L 342.271049 96.039384  L 348.664844 94.547052  L 355.058639 93.068669  L 361.452434 91.603849  L 367.846229 90.152226  L 374.240024 88.713451  L 380.633818 87.287187  L 387.027613 85.873115  L 393.421408 84.470925  L 399.815203 83.080325  "
           clip-path="url(#pe6a025513e)" />
      </g>
      <g
         id="line2d_32">
        <path
           id="path846"
           style="fill:none;stroke:#008000;stroke-linecap:square;stroke-width:2;"
           d="M 86.519257 157.226192  L 92.913052 153.404513  L 99.306847 149.724526  L 105.700642 146.171551  L 112.094436 142.73328  L 118.488231 139.399271  L 124.882026 136.160579  L 131.275821 133.009467  L 137.669616 129.939194  L 144.063411 126.94384  L 150.457205 124.018173  L 156.851 121.157546  L 163.244795 118.357804  L 169.63859 115.615217  L 176.032385 112.926423  L 182.426179 110.288374  L 188.819974 107.698302  L 195.213769 105.15368  L 201.607564 102.652197  L 208.001359 100.19173  L 214.395153 97.770325  L 220.788948 95.38618  L 227.182743 93.037624  L 233.576538 90.723111  L 239.970333 88.441202  L 246.364127 86.190557  L 252.757922 83.969923  L 259.151717 81.778133  L 265.545512 79.614091  L 271.939307 77.476768  L 278.333101 75.365199  L 284.726896 73.278475  L 291.120691 71.215738  L 297.514486 69.17618  L 303.908281 67.159037  L 310.302075 65.163585  L 316.69587 63.189141  L 323.089665 61.235052  L 329.48346 59.300704  L 335.877255 57.385509  L 342.271049 55.488909  L 348.664844 53.610374  L 355.058639 51.749396  L 361.452434 49.905492  L 367.846229 48.078201  L 374.240024 46.267082  L 380.633818 44.471713  L 387.027613 42.691689  L 393.421408 40.926625  L 399.815203 39.176148  "
           clip-path="url(#pe6a025513e)" />
      </g>
      <g
         id="line2d_33">
        <path
           id="path849"
           style="fill:none;stroke:#0000ff;stroke-linecap:square;stroke-width:2;"
           d="M 86.519257 150.626229  L 92.913052 146.540448  L 99.306847 142.606151  L 105.700642 138.807643  L 112.094436 135.131765  L 118.488231 131.567355  L 124.882026 128.104849  L 131.275821 124.735976  L 137.669616 121.453527  L 144.063411 118.251175  L 150.457205 115.123326  L 156.851 112.065012  L 163.244795 109.07179  L 169.63859 106.139673  L 176.032385 103.265066  L 182.426179 100.444712  L 188.819974 97.675649  L 195.213769 94.955178  L 201.607564 92.280826  L 208.001359 89.650325  L 214.395153 87.061586  L 220.788948 84.512681  L 227.182743 82.001826  L 233.576538 79.527366  L 239.970333 77.087762  L 246.364127 74.681583  L 252.757922 72.30749  L 259.151717 69.964233  L 265.545512 67.650642  L 271.939307 65.365617  L 278.333101 63.108125  L 284.726896 60.877194  L 291.120691 58.671909  L 297.514486 56.491405  L 303.908281 54.334865  L 310.302075 52.201515  L 316.69587 50.090624  L 323.089665 48.001496  L 329.48346 45.933472  L 335.877255 43.885924  L 342.271049 41.858258  L 348.664844 39.849904  L 355.058639 37.860321  L 361.452434 35.888991  L 367.846229 33.935423  L 374.240024 31.999144  L 380.633818 30.079703  L 387.027613 28.176669  L 393.421408 26.289627  L 399.815203 24.418182  "
           clip-path="url(#pe6a025513e)" />
      </g>
      <g
         id="line2d_34">
        <path
           id="path852"
           style="fill:none;stroke:#ff0000;stroke-dasharray:12.8,3.2,2,3.2;stroke-dashoffset:0;stroke-width:2;"
           d="M 86.519257 179.941816  L 92.913052 177.029119  L 99.306847 174.224412  L 105.700642 171.516508  L 112.094436 168.896025  L 118.488231 166.355006  L 124.882026 163.886633  L 131.275821 161.485009  L 137.669616 159.144997  L 144.063411 156.862084  L 150.457205 154.632283  L 156.851 152.452053  L 163.244795 150.318226  L 169.63859 148.22796  L 176.032385 146.178692  L 182.426179 144.1681  L 188.819974 142.194073  L 195.213769 140.254686  L 201.607564 138.348178  L 208.001359 136.47293  L 214.395153 134.627453  L 220.788948 132.810374  L 227.182743 131.020419  L 233.576538 129.25641  L 239.970333 127.51725  L 246.364127 125.801918  L 252.757922 124.10946  L 259.151717 122.438984  L 265.545512 120.789657  L 271.939307 119.160693  L 278.333101 117.551358  L 284.726896 115.960959  L 291.120691 114.388841  L 297.514486 112.83439  L 303.908281 111.297022  L 310.302075 109.776186  L 316.69587 108.27136  L 323.089665 106.782049  L 329.48346 105.307783  L 335.877255 103.848115  L 342.271049 102.402619  L 348.664844 100.970891  L 355.058639 99.552545  L 361.452434 98.147211  L 367.846229 96.754539  L 374.240024 95.374192  L 380.633818 94.005849  L 387.027613 92.649202  L 393.421408 91.303956  L 399.815203 89.969828  "
           clip-path="url(#pe6a025513e)" />
      </g>
      <g
         id="line2d_35">
        <path
           id="path855"
           style="fill:none;stroke:#008000;stroke-dasharray:12.8,3.2,2,3.2;stroke-dashoffset:0;stroke-width:2;"
           d="M 86.519257 163.495535  L 92.913052 159.924728  L 99.306847 156.486312  L 105.700642 153.16657  L 112.094436 149.954002  L 118.488231 146.838853  L 124.882026 143.812763  L 131.275821 140.868505  L 137.669616 137.999778  L 144.063411 135.201052  L 150.457205 132.467439  L 156.851 129.794596  L 163.244795 127.178642  L 169.63859 124.616091  L 176.032385 122.103801  L 182.426179 119.638926  L 188.819974 117.218877  L 195.213769 114.841296  L 201.607564 112.504021  L 208.001359 110.20507  L 214.395153 107.942618  L 220.788948 105.714978  L 227.182743 103.520592  L 233.576538 101.358015  L 239.970333 99.2259  L 246.364127 97.122997  L 252.757922 95.048136  L 259.151717 93.000225  L 265.545512 90.97824  L 271.939307 88.981221  L 278.333101 87.008264  L 284.726896 85.058522  L 291.120691 83.131192  L 297.514486 81.22552  L 303.908281 79.340792  L 310.302075 77.476331  L 316.69587 75.631497  L 323.089665 73.805684  L 329.48346 71.998315  L 335.877255 70.208842  L 342.271049 68.436744  L 348.664844 66.681524  L 355.058639 64.942709  L 361.452434 63.219847  L 367.846229 61.512508  L 374.240024 59.820278  L 380.633818 58.142765  L 387.027613 56.47959  L 393.421408 54.830392  L 399.815203 53.194825  "
           clip-path="url(#pe6a025513e)" />
      </g>
      <g
         id="line2d_36">
        <path
           id="path858"
           style="fill:none;stroke:#0000ff;stroke-dasharray:12.8,3.2,2,3.2;stroke-dashoffset:0;stroke-width:2;"
           d="M 86.519257 158.349256  L 92.913052 154.572517  L 99.306847 150.935804  L 105.700642 147.42461  L 112.094436 144.026769  L 118.488231 140.731966  L 124.882026 137.531359  L 131.275821 134.417302  L 137.669616 131.383133  L 144.063411 128.423002  L 150.457205 125.531739  L 156.851 122.704751  L 163.244795 119.937932  L 169.63859 117.227596  L 176.032385 114.57042  L 182.426179 111.963392  L 188.819974 109.403778  L 195.213769 106.889079  L 201.607564 104.417011  L 208.001359 101.985477  L 214.395153 99.592547  L 220.788948 97.236437  L 227.182743 94.915499  L 233.576538 92.628203  L 239.970333 90.373128  L 246.364127 88.148948  L 252.757922 85.954428  L 259.151717 83.788412  L 265.545512 81.649817  L 271.939307 79.537627  L 278.333101 77.450889  L 284.726896 75.388702  L 291.120691 73.350222  L 297.514486 71.334648  L 303.908281 69.341225  L 310.302075 67.369239  L 316.69587 65.418012  L 323.089665 63.486902  L 329.48346 61.5753  L 335.877255 59.682627  L 342.271049 57.80833  L 348.664844 55.951884  L 355.058639 54.11279  L 361.452434 52.29057  L 367.846229 50.484766  L 374.240024 48.694945  L 380.633818 46.920687  L 387.027613 45.161596  L 393.421408 43.417287  L 399.815203 41.687395  "
           clip-path="url(#pe6a025513e)" />
      </g>
      <g
         id="line2d_37">
        <path
           id="path861"
           style="fill:none;stroke:#ff0000;stroke-dasharray:7.4,3.2;stroke-dashoffset:0;stroke-width:2;"
           d="M 86.519257 182.381818  L 92.913052 179.566759  L 99.306847 176.856071  L 105.700642 174.23894  L 112.094436 171.7063  L 118.488231 169.25046  L 124.882026 166.864831  L 131.275821 164.543714  L 137.669616 162.282142  L 144.063411 160.075756  L 150.457205 157.920702  L 156.851 155.813557  L 163.244795 153.751259  L 169.63859 151.731063  L 176.032385 149.750489  L 182.426179 147.807295  L 188.819974 145.899441  L 195.213769 144.025066  L 201.607564 142.182467  L 208.001359 140.37008  L 214.395153 138.586467  L 220.788948 136.830299  L 227.182743 135.100347  L 233.576538 133.39547  L 239.970333 131.71461  L 246.364127 130.056778  L 252.757922 128.421054  L 259.151717 126.806575  L 265.545512 125.212536  L 271.939307 123.638178  L 278.333101 122.082791  L 284.726896 120.545704  L 291.120691 119.026286  L 297.514486 117.523943  L 303.908281 116.03811  L 310.302075 114.568255  L 316.69587 113.113873  L 323.089665 111.674487  L 329.48346 110.24964  L 335.877255 108.838903  L 342.271049 107.441862  L 348.664844 106.058128  L 355.058639 104.687327  L 361.452434 103.329102  L 367.846229 101.983115  L 374.240024 100.64904  L 380.633818 99.326566  L 387.027613 98.015396  L 393.421408 96.715244  L 399.815203 95.425838  "
           clip-path="url(#pe6a025513e)" />
      </g>
      <g
         id="line2d_38">
        <path
           id="path864"
           style="fill:none;stroke:#008000;stroke-dasharray:7.4,3.2;stroke-dashoffset:0;stroke-width:2;"
           d="M 86.519257 168.241593  L 92.913052 164.860704  L 99.306847 161.605163  L 105.700642 158.461985  L 112.094436 155.420281  L 118.488231 152.470813  L 124.882026 149.605669  L 131.275821 146.818004  L 137.669616 144.101853  L 144.063411 141.45198  L 150.457205 138.863758  L 156.851 136.333072  L 163.244795 133.85625  L 169.63859 131.429991  L 176.032385 129.05132  L 182.426179 126.717541  L 188.819974 124.426205  L 195.213769 122.175078  L 201.607564 119.962113  L 208.001359 117.785434  L 214.395153 115.643312  L 220.788948 113.534152  L 227.182743 111.456477  L 233.576538 109.408918  L 239.970333 107.390202  L 246.364127 105.399144  L 252.757922 103.434637  L 259.151717 101.495646  L 265.545512 99.581202  L 271.939307 97.690396  L 278.333101 95.822373  L 284.726896 93.97633  L 291.120691 92.151507  L 297.514486 90.34719  L 303.908281 88.562703  L 310.302075 86.797405  L 316.69587 85.05069  L 323.089665 83.321985  L 329.48346 81.610743  L 335.877255 79.916444  L 342.271049 78.238597  L 348.664844 76.57673  L 355.058639 74.930396  L 361.452434 73.299166  L 367.846229 71.682633  L 374.240024 70.080407  L 380.633818 68.492114  L 387.027613 66.917397  L 393.421408 65.355913  L 399.815203 63.807335  "
           clip-path="url(#pe6a025513e)" />
      </g>
      <g
         id="line2d_39">
        <path
           id="path867"
           style="fill:none;stroke:#0000ff;stroke-dasharray:7.4,3.2;stroke-dashoffset:0;stroke-width:2;"
           d="M 86.519257 164.085485  L 92.913052 160.538286  L 99.306847 157.122602  L 105.700642 153.824808  L 112.094436 150.633478  L 118.488231 147.538924  L 124.882026 144.53284  L 131.275821 141.608047  L 137.669616 138.758286  L 144.063411 135.978063  L 150.457205 133.262522  L 156.851 130.60735  L 163.244795 128.00869  L 169.63859 125.463081  L 176.032385 122.9674  L 182.426179 120.518821  L 188.819974 118.114772  L 195.213769 115.752909  L 201.607564 113.431086  L 208.001359 111.147334  L 214.395153 108.899839  L 220.788948 106.686927  L 227.182743 104.507049  L 233.576538 102.358768  L 239.970333 100.240749  L 246.364127 98.151749  L 252.757922 96.090605  L 259.151717 94.056233  L 265.545512 92.047616  L 271.939307 90.063799  L 278.333101 88.103887  L 284.726896 86.167034  L 291.120691 84.252447  L 297.514486 82.359373  L 303.908281 80.487105  L 310.302075 78.63497  L 316.69587 76.802333  L 323.089665 74.988591  L 329.48346 73.193171  L 335.877255 71.415528  L 342.271049 69.655146  L 348.664844 67.91153  L 355.058639 66.18421  L 361.452434 64.472739  L 367.846229 62.776687  L 374.240024 61.095646  L 380.633818 59.429223  L 387.027613 57.777043  L 393.421408 56.138749  L 399.815203 54.513994  "
           clip-path="url(#pe6a025513e)" />
      </g>
      <g
         id="patch_3">
        <path
           id="path870"
           style="fill:none;stroke:#bcbcbc;stroke-linecap:square;stroke-linejoin:miter;stroke-width:0.8;"
           d="M 70.85446 190.28  L 70.85446 16.52  " />
      </g>
      <g
         id="patch_4">
        <path
           id="path873"
           style="fill:none;stroke:#bcbcbc;stroke-linecap:square;stroke-linejoin:miter;stroke-width:0.8;"
           d="M 415.48 190.28  L 415.48 16.52  " />
      </g>
      <g
         id="patch_5">
        <path
           id="path876"
           style="fill:none;stroke:#bcbcbc;stroke-linecap:square;stroke-linejoin:miter;stroke-width:0.8;"
           d="M 70.85446 190.28  L 415.48 190.28  " />
      </g>
      <g
         id="patch_6">
        <path
           id="path879"
           style="fill:none;stroke:#bcbcbc;stroke-linecap:square;stroke-linejoin:miter;stroke-width:0.8;"
           d="M 70.85446 16.52  L 415.48 16.52  " />
      </g>
      <g
         id="legend_1">
        <g
           id="patch_7">
          <path
             id="path882"
             style="fill:#4c4c4c;opacity:0.5;stroke:#4c4c4c;stroke-linejoin:miter;stroke-width:0.5;"
             d="M 81.01786 80.672993  L 178.0457 80.672993  Q 180.3781 80.672993 180.3781 78.340593  L 180.3781 26.6834  Q 180.3781 24.351 178.0457 24.351  L 81.01786 24.351  Q 78.68546 24.351 78.68546 26.6834  L 78.68546 78.340593  Q 78.68546 80.672993 81.01786 80.672993  z " />
        </g>
        <g
           id="patch_8">
          <path
             id="path885"
             style="fill:#ffffff;opacity:0.8;stroke:#cccccc;stroke-linejoin:miter;stroke-width:0.5;"
             d="M 79.01786 78.672993  L 176.0457 78.672993  Q 178.3781 78.672993 178.3781 76.340593  L 178.3781 24.6834  Q 178.3781 22.351 176.0457 22.351  L 79.01786 22.351  Q 76.68546 22.351 76.68546 24.6834  L 76.68546 76.340593  Q 76.68546 78.672993 79.01786 78.672993  z " />
        </g>
        <g
           id="line2d_40">
          <path
             id="path888"
             style="fill:none;stroke:#ff0000;stroke-linecap:square;stroke-width:2;"
             d="M 81.35026 31.795398  L 104.67426 31.795398  " />
        </g>
        <g
           id="line2d_41" />
        <g
           id="text_18">
          <!-- $P_e/P_t=10$ -->
          <defs
             id="defs897">
            <path
               id="Cmmi10-50"
               d="M 4.890625 0  Q 3.90625 0 3.90625 1.3125  Q 3.953125 1.5625 4.09375 2.171875  Q 4.25 2.78125 4.515625 3.140625  Q 4.78125 3.515625 5.171875 3.515625  Q 11.28125 3.515625 13.71875 4.203125  Q 14.984375 4.640625 15.578125 6.890625  L 29.296875 61.8125  Q 29.5 62.796875 29.5 63.1875  Q 29.5 64.265625 28.328125 64.40625  Q 26.421875 64.796875 21.09375 64.796875  Q 20.125 64.796875 20.125 66.109375  Q 20.171875 66.359375 20.3125 66.96875  Q 20.453125 67.578125 20.71875 67.9375  Q 21 68.3125 21.390625 68.3125  L 55.90625 68.3125  Q 60.640625 68.3125 65.078125 66.625  Q 69.53125 64.9375 72.359375 61.46875  Q 75.203125 58.015625 75.203125 53.078125  Q 75.203125 46.734375 70.734375 41.75  Q 66.265625 36.765625 59.59375 33.984375  Q 52.9375 31.203125 46.6875 31.203125  L 30.421875 31.203125  L 24.3125 6.5  Q 24.125 5.515625 24.125 5.078125  Q 24.125 4.6875 24.234375 4.421875  Q 24.359375 4.15625 24.578125 4.078125  Q 24.8125 4 25.296875 3.90625  Q 27.203125 3.515625 32.515625 3.515625  Q 33.5 3.515625 33.5 2.203125  Q 33.15625 0.78125 32.953125 0.390625  Q 32.765625 0 31.78125 0  z M 30.90625 34.1875  L 44.921875 34.1875  Q 54.640625 34.1875 59.71875 39.40625  Q 62.3125 42 63.9375 46.875  Q 65.578125 51.765625 65.578125 55.71875  Q 65.578125 60.640625 61.8125 62.71875  Q 58.0625 64.796875 52.484375 64.796875  L 42.921875 64.796875  Q 40.1875 64.796875 39.296875 64.328125  Q 38.421875 63.875 37.703125 61.375  z " />
            <path
               id="Cmmi10-65"
               d="M 20.125 -1.125  Q 15.328125 -1.125 11.734375 1.359375  Q 8.15625 3.859375 6.265625 8.078125  Q 4.390625 12.3125 4.390625 17  Q 4.390625 24.125 7.984375 30.390625  Q 11.578125 36.671875 17.71875 40.421875  Q 23.875 44.1875 30.90625 44.1875  Q 35.203125 44.1875 38.40625 41.96875  Q 41.609375 39.75 41.609375 35.59375  Q 41.609375 29.828125 37.015625 27.015625  Q 32.421875 24.21875 26.65625 23.5625  Q 20.90625 22.90625 13.921875 22.90625  L 13.625 22.90625  Q 12.015625 16.9375 12.015625 12.703125  Q 12.015625 8.25 14.0625 4.875  Q 16.109375 1.515625 20.3125 1.515625  Q 26.265625 1.515625 31.75 4.25  Q 37.25 6.984375 40.71875 11.8125  Q 41.015625 12.109375 41.5 12.109375  Q 42 12.109375 42.5 11.546875  Q 43.015625 10.984375 43.015625 10.5  Q 43.015625 10.109375 42.828125 9.90625  Q 39.15625 4.78125 32.953125 1.828125  Q 26.765625 -1.125 20.125 -1.125  z M 14.203125 25.484375  Q 20.015625 25.484375 24.953125 26.015625  Q 29.890625 26.5625 33.890625 28.734375  Q 37.890625 30.90625 37.890625 35.5  Q 37.890625 37.359375 36.859375 38.75  Q 35.84375 40.140625 34.203125 40.875  Q 32.5625 41.609375 30.8125 41.609375  Q 26.5625 41.609375 23.171875 39.3125  Q 19.78125 37.015625 17.578125 33.328125  Q 15.375 29.640625 14.203125 25.484375  z " />
            <path
               id="Cmr10-3d"
               d="M 7.515625 13.28125  Q 6.6875 13.28125 6.140625 13.90625  Q 5.609375 14.546875 5.609375 15.28125  Q 5.609375 16.109375 6.140625 16.6875  Q 6.6875 17.28125 7.515625 17.28125  L 70.3125 17.28125  Q 71.046875 17.28125 71.578125 16.6875  Q 72.125 16.109375 72.125 15.28125  Q 72.125 14.546875 71.578125 13.90625  Q 71.046875 13.28125 70.3125 13.28125  z M 7.515625 32.71875  Q 6.6875 32.71875 6.140625 33.296875  Q 5.609375 33.890625 5.609375 34.71875  Q 5.609375 35.453125 6.140625 36.078125  Q 6.6875 36.71875 7.515625 36.71875  L 70.3125 36.71875  Q 71.046875 36.71875 71.578125 36.078125  Q 72.125 35.453125 72.125 34.71875  Q 72.125 33.890625 71.578125 33.296875  Q 71.046875 32.71875 70.3125 32.71875  z " />
            <path
               id="Cmr10-31"
               d="M 9.28125 0  L 9.28125 3.515625  Q 21.78125 3.515625 21.78125 6.6875  L 21.78125 59.1875  Q 16.609375 56.6875 8.6875 56.6875  L 8.6875 60.203125  Q 20.953125 60.203125 27.203125 66.609375  L 28.609375 66.609375  Q 28.953125 66.609375 29.265625 66.328125  Q 29.59375 66.0625 29.59375 65.71875  L 29.59375 6.6875  Q 29.59375 3.515625 42.09375 3.515625  L 42.09375 0  z " />
            <path
               id="Cmr10-30"
               d="M 25 -2.203125  Q 12.75 -2.203125 8.328125 7.875  Q 3.90625 17.96875 3.90625 31.890625  Q 3.90625 40.578125 5.484375 48.234375  Q 7.078125 55.90625 11.78125 61.25  Q 16.5 66.609375 25 66.609375  Q 31.59375 66.609375 35.78125 63.375  Q 39.984375 60.15625 42.1875 55.046875  Q 44.390625 49.953125 45.1875 44.109375  Q 46 38.28125 46 31.890625  Q 46 23.296875 44.40625 15.796875  Q 42.828125 8.296875 38.1875 3.046875  Q 33.546875 -2.203125 25 -2.203125  z M 25 0.390625  Q 30.5625 0.390625 33.296875 6.09375  Q 36.03125 11.8125 36.671875 18.75  Q 37.3125 25.6875 37.3125 33.5  Q 37.3125 41.015625 36.671875 47.359375  Q 36.03125 53.71875 33.3125 58.859375  Q 30.609375 64.015625 25 64.015625  Q 19.34375 64.015625 16.609375 58.828125  Q 13.875 53.65625 13.234375 47.328125  Q 12.59375 41.015625 12.59375 33.5  Q 12.59375 27.9375 12.859375 23  Q 13.140625 18.0625 14.3125 12.8125  Q 15.484375 7.5625 18.09375 3.96875  Q 20.703125 0.390625 25 0.390625  z " />
          </defs>
          <g
             id="g915"
             transform="translate(114.00386 35.877098)scale(0.11662 -0.11662)">
            <use
               id="use899"
               xlink:href="#Cmmi10-50" />
            <use
               id="use901"
               xlink:href="#Cmmi10-65"
               transform="translate(64.208984 -17.00625)scale(0.7)" />
            <use
               id="use903"
               xlink:href="#Cmmi10-3d"
               transform="translate(103.125391 0)" />
            <use
               id="use905"
               xlink:href="#Cmmi10-50"
               transform="translate(153.125391 0)" />
            <use
               id="use907"
               xlink:href="#Cmmi10-74"
               transform="translate(217.334375 -17.00625)scale(0.7)" />
            <use
               id="use909"
               xlink:href="#Cmr10-3d"
               transform="translate(266.529102 0)" />
            <use
               id="use911"
               xlink:href="#Cmr10-31"
               transform="translate(361.773242 0)" />
            <use
               id="use913"
               xlink:href="#Cmr10-30"
               transform="translate(411.773242 0)" />
          </g>
        </g>
        <g
           id="line2d_42">
          <path
             id="path918"
             style="fill:none;stroke:#008000;stroke-linecap:square;stroke-width:2;"
             d="M 81.35026 49.403196  L 104.67426 49.403196  " />
        </g>
        <g
           id="line2d_43" />
        <g
           id="text_19">
          <!-- $P_e/P_t=50$ -->
          <defs
             id="defs923">
            <path
               id="Cmr10-35"
               d="M 8.6875 11.375  Q 9.71875 8.453125 11.84375 6.046875  Q 13.96875 3.65625 16.875 2.3125  Q 19.78125 0.984375 22.90625 0.984375  Q 30.125 0.984375 32.859375 6.59375  Q 35.59375 12.203125 35.59375 20.21875  Q 35.59375 23.6875 35.46875 26.046875  Q 35.359375 28.421875 34.8125 30.609375  Q 33.890625 34.125 31.5625 36.765625  Q 29.25 39.40625 25.875 39.40625  Q 22.515625 39.40625 20.09375 38.375  Q 17.671875 37.359375 16.15625 35.984375  Q 14.65625 34.625 13.484375 33.109375  Q 12.3125 31.59375 12.015625 31.5  L 10.890625 31.5  Q 10.640625 31.5 10.265625 31.8125  Q 9.90625 32.125 9.90625 32.421875  L 9.90625 65.828125  Q 9.90625 66.0625 10.21875 66.328125  Q 10.546875 66.609375 10.890625 66.609375  L 11.1875 66.609375  Q 17.921875 63.375 25.484375 63.375  Q 32.90625 63.375 39.796875 66.609375  L 40.09375 66.609375  Q 40.4375 66.609375 40.71875 66.359375  Q 41.015625 66.109375 41.015625 65.828125  L 41.015625 64.890625  Q 41.015625 64.40625 40.828125 64.40625  Q 37.40625 59.859375 32.25 57.3125  Q 27.09375 54.78125 21.578125 54.78125  Q 17.578125 54.78125 13.375 55.90625  L 13.375 37.015625  Q 16.703125 39.703125 19.3125 40.84375  Q 21.921875 42 25.984375 42  Q 31.5 42 35.859375 38.8125  Q 40.234375 35.640625 42.578125 30.53125  Q 44.921875 25.4375 44.921875 20.125  Q 44.921875 14.109375 41.96875 8.984375  Q 39.015625 3.859375 33.9375 0.828125  Q 28.859375 -2.203125 22.90625 -2.203125  Q 17.96875 -2.203125 13.84375 0.328125  Q 9.71875 2.875 7.34375 7.171875  Q 4.984375 11.46875 4.984375 16.3125  Q 4.984375 18.5625 6.4375 19.96875  Q 7.90625 21.390625 10.109375 21.390625  Q 12.3125 21.390625 13.796875 19.9375  Q 15.28125 18.5 15.28125 16.3125  Q 15.28125 14.15625 13.796875 12.671875  Q 12.3125 11.1875 10.109375 11.1875  Q 9.765625 11.1875 9.328125 11.25  Q 8.890625 11.328125 8.6875 11.375  z " />
          </defs>
          <g
             id="g941"
             transform="translate(114.00386 53.484896)scale(0.11662 -0.11662)">
            <use
               id="use925"
               xlink:href="#Cmmi10-50" />
            <use
               id="use927"
               xlink:href="#Cmmi10-65"
               transform="translate(64.208984 -17.00625)scale(0.7)" />
            <use
               id="use929"
               xlink:href="#Cmmi10-3d"
               transform="translate(103.125391 0)" />
            <use
               id="use931"
               xlink:href="#Cmmi10-50"
               transform="translate(153.125391 0)" />
            <use
               id="use933"
               xlink:href="#Cmmi10-74"
               transform="translate(217.334375 -17.00625)scale(0.7)" />
            <use
               id="use935"
               xlink:href="#Cmr10-3d"
               transform="translate(266.529102 0)" />
            <use
               id="use937"
               xlink:href="#Cmr10-35"
               transform="translate(361.773242 0)" />
            <use
               id="use939"
               xlink:href="#Cmr10-30"
               transform="translate(411.773242 0)" />
          </g>
        </g>
        <g
           id="line2d_44">
          <path
             id="path944"
             style="fill:none;stroke:#0000ff;stroke-linecap:square;stroke-width:2;"
             d="M 81.35026 67.010993  L 104.67426 67.010993  " />
        </g>
        <g
           id="line2d_45" />
        <g
           id="text_20">
          <!-- $P_e/P_t=100$ -->
          <g
             id="g966"
             transform="translate(114.00386 71.092693)scale(0.11662 -0.11662)">
            <use
               id="use948"
               xlink:href="#Cmmi10-50" />
            <use
               id="use950"
               xlink:href="#Cmmi10-65"
               transform="translate(64.208984 -17.00625)scale(0.7)" />
            <use
               id="use952"
               xlink:href="#Cmmi10-3d"
               transform="translate(103.125391 0)" />
            <use
               id="use954"
               xlink:href="#Cmmi10-50"
               transform="translate(153.125391 0)" />
            <use
               id="use956"
               xlink:href="#Cmmi10-74"
               transform="translate(217.334375 -17.00625)scale(0.7)" />
            <use
               id="use958"
               xlink:href="#Cmr10-3d"
               transform="translate(266.529102 0)" />
            <use
               id="use960"
               xlink:href="#Cmr10-31"
               transform="translate(361.773242 0)" />
            <use
               id="use962"
               xlink:href="#Cmr10-30"
               transform="translate(411.773242 0)" />
            <use
               id="use964"
               xlink:href="#Cmr10-30"
               transform="translate(461.773242 0)" />
          </g>
        </g>
      </g>
    </g>
  </g>
  <defs
     id="defs975">
    <clipPath
       id="pe6a025513e">
      <rect
         id="rect972"
         y="16.52"
         x="70.85446"
         width="344.62554"
         height="173.76" />
    </clipPath>
  </defs>
  <path
     inkscape:connector-curvature="0"
     id="path4672"
     d="m 311.25,117 14.25,9 h 24"
     style="fill:none;stroke:#000000;stroke-width:2.00000006;stroke-linecap:butt;stroke-linejoin:bevel;stroke-opacity:1;stroke-miterlimit:4;stroke-dasharray:6.00000018, 2.00000006000000008;marker-start:url(#Arrow2Mstart);stroke-dashoffset:0" />
  <g
     id="g6215"
     transform="translate(252.3504,-47.3004)"
     style="stroke-linecap:butt;stroke-linejoin:round">
    <g
       word-spacing="normal"
       letter-spacing="normal"
       font-size-adjust="none"
       font-stretch="normal"
       font-weight="normal"
       font-variant="normal"
       font-style="normal"
       stroke-miterlimit="10.433"
       xml:space="preserve"
       transform="matrix(0.36,0,0,-0.36,-63,324)"
       id="content"
       style="font-style:normal;font-variant:normal;font-weight:normal;font-stretch:normal;letter-spacing:normal;word-spacing:normal;text-anchor:start;fill:none;fill-opacity:1;fill-rule:evenodd;stroke:#000000;stroke-linecap:butt;stroke-linejoin:round;stroke-miterlimit:10.43299961;stroke-dasharray:none;stroke-dashoffset:0;stroke-opacity:1"><path
         id="path6202"
         d="m 457.57,418.86 0.09,0.26 0.1,0.26 0.1,0.24 0.11,0.25 0.11,0.23 0.12,0.22 0.12,0.22 0.12,0.21 0.13,0.2 0.13,0.2 0.13,0.19 0.14,0.18 0.28,0.34 0.29,0.32 0.3,0.29 0.31,0.27 0.31,0.24 0.32,0.22 0.32,0.21 0.32,0.18 0.31,0.16 0.32,0.15 0.31,0.13 0.3,0.11 0.3,0.1 0.29,0.08 0.28,0.07 0.27,0.06 0.25,0.05 0.24,0.04 0.22,0.03 0.21,0.02 0.19,0.02 0.16,0.01 0.14,0.01 0.12,0.01 h 0.09 0.07 c 7.51,0 8.06,-8.72 8.06,-12.66 0,-3.05 -0.25,-3.89 -0.59,-4.89 -1.1,-3.63 -2.6,-9.41 -2.6,-10.7 0,-0.55 0.25,-0.91 0.66,-0.91 0.64,0 1.05,1.11 1.59,3 1.14,4.19 1.64,7.02 1.85,8.56 0.09,0.66 0.18,1.3 0.39,1.96 1.59,4.92 4.78,12.34 6.78,16.28 0.34,0.59 0.94,1.7 0.94,1.89 0,0.5 -0.49,0.5 -0.6,0.5 -0.14,0 -0.45,0 -0.59,-0.35 -2.59,-4.73 -4.58,-9.71 -6.58,-14.75 -0.05,1.55 -0.09,5.33 -2.05,10.18 -1.18,3.03 -3.18,5.46 -6.62,5.46 -6.22,0 -9.72,-7.56 -9.72,-9.1 0,-0.5 0.45,-0.5 0.95,-0.5 z"
         inkscape:connector-curvature="0"
         style="fill:#000000;stroke-width:0;stroke-linecap:butt;stroke-linejoin:round" /><path
         id="path6204"
         d="m 532.23,422.5 h 0.14 0.14 0.15 l 0.07,0.01 h 0.07 l 0.08,0.01 0.07,0.01 0.07,0.01 0.07,0.01 0.07,0.01 0.06,0.02 0.07,0.02 0.06,0.02 0.06,0.02 0.06,0.03 0.05,0.03 0.06,0.04 0.05,0.03 0.04,0.05 0.05,0.04 0.04,0.05 0.02,0.03 0.01,0.03 0.02,0.02 0.02,0.03 0.01,0.03 0.01,0.04 0.01,0.03 0.02,0.04 0.01,0.03 v 0.04 l 0.01,0.04 0.01,0.04 v 0.04 l 0.01,0.04 v 0.04 0.05 c 0,1 -0.95,1 -1.64,1 h -29.85 c -0.7,0 -1.64,0 -1.64,-1 0,-0.98 0.94,-0.98 1.69,-0.98 z"
         inkscape:connector-curvature="0"
         style="fill:#000000;stroke-width:0;stroke-linecap:butt;stroke-linejoin:round" /><path
         id="path6206"
         d="m 532.28,412.82 h 0.06 0.07 l 0.14,0.01 h 0.13 0.07 l 0.07,0.01 0.07,0.01 h 0.07 l 0.07,0.01 0.07,0.02 0.07,0.01 0.06,0.02 0.06,0.02 0.07,0.02 0.06,0.02 0.05,0.03 0.06,0.03 0.05,0.04 0.05,0.04 0.05,0.04 0.04,0.05 0.02,0.02 0.02,0.03 0.02,0.02 0.01,0.03 0.02,0.03 0.02,0.03 0.01,0.03 0.01,0.03 0.01,0.04 0.02,0.03 0.01,0.04 v 0.04 l 0.01,0.04 0.01,0.04 v 0.04 l 0.01,0.04 v 0.05 0.04 c 0,1 -0.95,1 -1.69,1 h -29.75 c -0.75,0 -1.69,0 -1.69,-1 0,-1 0.94,-1 1.64,-1 z"
         inkscape:connector-curvature="0"
         style="fill:#000000;stroke-width:0;stroke-linecap:butt;stroke-linejoin:round" /><path
         id="path6208"
         d="m 565.2,438.09 v 0.05 l -0.01,0.06 v 0.05 0.05 0.05 0.05 0.04 0.05 0.04 0.04 0.04 0.04 0.04 l -0.01,0.03 v 0.04 0.03 l -0.01,0.07 -0.01,0.06 -0.01,0.05 -0.02,0.05 -0.01,0.05 -0.02,0.04 -0.02,0.04 -0.03,0.03 -0.03,0.03 -0.03,0.03 -0.03,0.03 -0.04,0.02 -0.05,0.02 -0.02,0.01 -0.03,0.01 h -0.02 l -0.03,0.01 -0.03,0.01 h -0.03 l -0.03,0.01 h -0.03 l -0.03,0.01 h -0.04 -0.03 l -0.04,0.01 h -0.04 -0.04 -0.04 -0.04 -0.05 l -0.04,0.01 h -0.05 -0.05 -0.05 -0.06 c -3.09,-3.19 -7.46,-3.19 -9.06,-3.19 v -1.55 c 1,0 3.94,0 6.52,1.3 v -25.81 c 0,-1.8 -0.14,-2.39 -4.63,-2.39 h -1.59 v -1.55 c 1.75,0.16 6.08,0.16 8.06,0.16 2,0 6.33,0 8.08,-0.16 v 1.55 h -1.59 c -4.49,0 -4.64,0.54 -4.64,2.39 z"
         inkscape:connector-curvature="0"
         style="fill:#000000;stroke-width:0;stroke-linecap:butt;stroke-linejoin:round" /><path
         id="path6210"
         d="m 585.07,408.84 v 0.13 l -0.01,0.14 -0.02,0.13 -0.02,0.13 -0.03,0.12 -0.04,0.13 -0.04,0.12 -0.04,0.12 -0.06,0.12 -0.06,0.11 -0.06,0.11 -0.07,0.11 -0.07,0.1 -0.08,0.1 -0.08,0.1 -0.09,0.09 -0.09,0.09 -0.1,0.08 -0.1,0.08 -0.1,0.07 -0.11,0.07 -0.11,0.07 -0.11,0.06 -0.12,0.05 -0.12,0.05 -0.12,0.04 -0.13,0.04 -0.13,0.03 -0.13,0.02 -0.13,0.02 -0.13,0.01 h -0.14 c -1.43,0 -2.64,-1.2 -2.64,-2.64 0,-1.44 1.21,-2.64 2.64,-2.64 1.46,0 2.64,1.2 2.64,2.64 z"
         inkscape:connector-curvature="0"
         style="fill:#000000;stroke-width:0;stroke-linecap:butt;stroke-linejoin:round" /><path
         id="path6212"
         d="m 603.76,423.73 0.38,0.13 0.37,0.15 0.37,0.15 0.35,0.17 0.35,0.18 0.34,0.19 0.33,0.2 0.32,0.22 0.31,0.22 0.31,0.23 0.29,0.24 0.28,0.25 0.27,0.26 0.26,0.27 0.25,0.27 0.24,0.29 0.22,0.29 0.21,0.3 0.2,0.3 0.19,0.32 0.17,0.32 0.17,0.32 0.14,0.33 0.13,0.34 0.12,0.34 0.11,0.34 0.08,0.35 0.08,0.36 0.06,0.36 0.04,0.36 0.02,0.36 0.01,0.37 c 0,4.08 -4.39,6.88 -9.17,6.88 -5.03,0 -8.81,-3 -8.81,-6.78 0,-1.65 1.09,-2.6 2.54,-2.6 1.53,0 2.53,1.1 2.53,2.55 0,2.48 -2.34,2.48 -3.07,2.48 1.53,2.44 4.82,3.1 6.62,3.1 2.03,0 4.78,-1.1 4.78,-5.58 0,-0.61 -0.11,-3.49 -1.4,-5.69 -1.49,-2.39 -3.19,-2.53 -4.43,-2.59 -0.4,-0.05 -1.59,-0.14 -1.95,-0.14 -0.39,-0.05 -0.75,-0.1 -0.75,-0.6 0,-0.54 0.36,-0.54 1.2,-0.54 h 2.19 c 4.09,0 5.94,-3.39 5.94,-8.29 0,-6.76 -3.44,-8.21 -5.64,-8.21 -2.14,0 -5.88,0.84 -7.61,3.78 1.73,-0.24 3.28,0.86 3.28,2.75 0,1.79 -1.34,2.78 -2.8,2.78 -1.18,0 -2.78,-0.69 -2.78,-2.89 0,-4.53 4.63,-7.81 10.07,-7.81 6.07,0 10.6,4.53 10.6,9.6 0,4.1 -3.14,7.97 -8.31,9.02 z"
         inkscape:connector-curvature="0"
         style="fill:#000000;stroke-width:0;stroke-linecap:butt;stroke-linejoin:round" /></g>  </g>
  <path
     style="fill:none;stroke:#000000;stroke-width:2;stroke-linecap:butt;stroke-linejoin:bevel;stroke-miterlimit:4;stroke-dasharray:8.00000023, 4.00000012, 2.00000006, 4.00000012;stroke-dashoffset:0;stroke-opacity:1;marker-start:url(#marker6536)"
     d="m 273,120.75 30.75,25.5 h 24"
     id="path6532"
     inkscape:connector-curvature="0"
     sodipodi:nodetypes="ccc" />
  <g
     id="g7758"
     transform="translate(230.6004,-28.5504)"
     style="stroke-linecap:butt;stroke-linejoin:round">
    <g
       id="g7756"
       transform="matrix(0.36,0,0,-0.36,-63,324)"
       xml:space="preserve"
       stroke-miterlimit="10.433"
       font-style="normal"
       font-variant="normal"
       font-weight="normal"
       font-stretch="normal"
       font-size-adjust="none"
       letter-spacing="normal"
       word-spacing="normal"
       style="font-style:normal;font-variant:normal;font-weight:normal;font-stretch:normal;letter-spacing:normal;word-spacing:normal;text-anchor:start;fill:none;fill-opacity:1;fill-rule:evenodd;stroke:#000000;stroke-linecap:butt;stroke-linejoin:round;stroke-miterlimit:10.43299961;stroke-dasharray:none;stroke-dashoffset:0;stroke-opacity:1"><path
         d="m 457.57,418.86 0.09,0.26 0.1,0.26 0.1,0.24 0.11,0.25 0.11,0.23 0.12,0.22 0.12,0.22 0.12,0.21 0.13,0.2 0.13,0.2 0.13,0.19 0.14,0.18 0.28,0.34 0.29,0.32 0.3,0.29 0.31,0.27 0.31,0.24 0.32,0.22 0.32,0.21 0.32,0.18 0.31,0.16 0.32,0.15 0.31,0.13 0.3,0.11 0.3,0.1 0.29,0.08 0.28,0.07 0.27,0.06 0.25,0.05 0.24,0.04 0.22,0.03 0.21,0.02 0.19,0.02 0.16,0.01 0.14,0.01 0.12,0.01 h 0.09 0.07 c 7.51,0 8.06,-8.72 8.06,-12.66 0,-3.05 -0.25,-3.89 -0.59,-4.89 -1.1,-3.63 -2.6,-9.41 -2.6,-10.7 0,-0.55 0.25,-0.91 0.66,-0.91 0.64,0 1.05,1.11 1.59,3 1.14,4.19 1.64,7.02 1.85,8.56 0.09,0.66 0.18,1.3 0.39,1.96 1.59,4.92 4.78,12.34 6.78,16.28 0.34,0.59 0.94,1.7 0.94,1.89 0,0.5 -0.49,0.5 -0.6,0.5 -0.14,0 -0.45,0 -0.59,-0.35 -2.59,-4.73 -4.58,-9.71 -6.58,-14.75 -0.05,1.55 -0.09,5.33 -2.05,10.18 -1.18,3.03 -3.18,5.46 -6.62,5.46 -6.22,0 -9.72,-7.56 -9.72,-9.1 0,-0.5 0.45,-0.5 0.95,-0.5 z"
         id="path7744"
         inkscape:connector-curvature="0"
         style="fill:#000000;stroke-width:0;stroke-linecap:butt;stroke-linejoin:round" /><path
         d="m 532.23,422.5 h 0.14 0.14 0.15 l 0.07,0.01 h 0.07 l 0.08,0.01 0.07,0.01 0.07,0.01 0.07,0.01 0.07,0.01 0.06,0.02 0.07,0.02 0.06,0.02 0.06,0.02 0.06,0.03 0.05,0.03 0.06,0.04 0.05,0.03 0.04,0.05 0.05,0.04 0.04,0.05 0.02,0.03 0.01,0.03 0.02,0.02 0.02,0.03 0.01,0.03 0.01,0.04 0.01,0.03 0.02,0.04 0.01,0.03 v 0.04 l 0.01,0.04 0.01,0.04 v 0.04 l 0.01,0.04 v 0.04 0.05 c 0,1 -0.95,1 -1.64,1 h -29.85 c -0.7,0 -1.64,0 -1.64,-1 0,-0.98 0.94,-0.98 1.69,-0.98 z"
         id="path7746"
         inkscape:connector-curvature="0"
         style="fill:#000000;stroke-width:0;stroke-linecap:butt;stroke-linejoin:round" /><path
         d="m 532.28,412.82 h 0.06 0.07 l 0.14,0.01 h 0.13 0.07 l 0.07,0.01 0.07,0.01 h 0.07 l 0.07,0.01 0.07,0.02 0.07,0.01 0.06,0.02 0.06,0.02 0.07,0.02 0.06,0.02 0.05,0.03 0.06,0.03 0.05,0.04 0.05,0.04 0.05,0.04 0.04,0.05 0.02,0.02 0.02,0.03 0.02,0.02 0.01,0.03 0.02,0.03 0.02,0.03 0.01,0.03 0.01,0.03 0.01,0.04 0.02,0.03 0.01,0.04 v 0.04 l 0.01,0.04 0.01,0.04 v 0.04 l 0.01,0.04 v 0.05 0.04 c 0,1 -0.95,1 -1.69,1 h -29.75 c -0.75,0 -1.69,0 -1.69,-1 0,-1 0.94,-1 1.64,-1 z"
         id="path7748"
         inkscape:connector-curvature="0"
         style="fill:#000000;stroke-width:0;stroke-linecap:butt;stroke-linejoin:round" /><path
         d="m 565.2,438.09 v 0.05 l -0.01,0.06 v 0.05 0.05 0.05 0.05 0.04 0.05 0.04 0.04 0.04 0.04 0.04 l -0.01,0.03 v 0.04 0.03 l -0.01,0.07 -0.01,0.06 -0.01,0.05 -0.02,0.05 -0.01,0.05 -0.02,0.04 -0.02,0.04 -0.03,0.03 -0.03,0.03 -0.03,0.03 -0.03,0.03 -0.04,0.02 -0.05,0.02 -0.02,0.01 -0.03,0.01 h -0.02 l -0.03,0.01 -0.03,0.01 h -0.03 l -0.03,0.01 h -0.03 l -0.03,0.01 h -0.04 -0.03 l -0.04,0.01 h -0.04 -0.04 -0.04 -0.04 -0.05 l -0.04,0.01 h -0.05 -0.05 -0.05 -0.06 c -3.09,-3.19 -7.46,-3.19 -9.06,-3.19 v -1.55 c 1,0 3.94,0 6.52,1.3 v -25.81 c 0,-1.8 -0.14,-2.39 -4.63,-2.39 h -1.59 v -1.55 c 1.75,0.16 6.08,0.16 8.06,0.16 2,0 6.33,0 8.08,-0.16 v 1.55 h -1.59 c -4.49,0 -4.64,0.54 -4.64,2.39 z"
         id="path7750"
         inkscape:connector-curvature="0"
         style="fill:#000000;stroke-width:0;stroke-linecap:butt;stroke-linejoin:round" /><path
         d="m 585.07,408.84 v 0.13 l -0.01,0.14 -0.02,0.13 -0.02,0.13 -0.03,0.12 -0.04,0.13 -0.04,0.12 -0.04,0.12 -0.06,0.12 -0.06,0.11 -0.06,0.11 -0.07,0.11 -0.07,0.1 -0.08,0.1 -0.08,0.1 -0.09,0.09 -0.09,0.09 -0.1,0.08 -0.1,0.08 -0.1,0.07 -0.11,0.07 -0.11,0.07 -0.11,0.06 -0.12,0.05 -0.12,0.05 -0.12,0.04 -0.13,0.04 -0.13,0.03 -0.13,0.02 -0.13,0.02 -0.13,0.01 h -0.14 c -1.43,0 -2.64,-1.2 -2.64,-2.64 0,-1.44 1.21,-2.64 2.64,-2.64 1.46,0 2.64,1.2 2.64,2.64 z"
         id="path7752"
         inkscape:connector-curvature="0"
         style="fill:#000000;stroke-width:0;stroke-linecap:butt;stroke-linejoin:round" /><path
         d="m 595.64,410.04 5.28,5.13 c 7.76,6.87 10.76,9.56 10.76,14.54 0,5.69 -4.48,9.68 -10.56,9.68 -5.64,0 -9.33,-4.6 -9.33,-9.03 0,-2.79 2.5,-2.79 2.64,-2.79 0.86,0 2.6,0.6 2.6,2.64 0,1.3 -0.89,2.6 -2.64,2.6 -0.39,0 -0.5,0 -0.64,-0.05 1.14,3.24 3.82,5.08 6.72,5.08 4.53,0 6.68,-4.05 6.68,-8.13 0,-3.98 -2.5,-7.92 -5.23,-11.01 l -9.57,-10.66 c -0.56,-0.54 -0.56,-0.64 -0.56,-1.84 h 18.49 l 1.4,8.67 h -1.25 c -0.25,-1.5 -0.59,-3.69 -1.09,-4.44 -0.36,-0.39 -3.64,-0.39 -4.74,-0.39 z"
         id="path7754"
         inkscape:connector-curvature="0"
         style="fill:#000000;stroke-width:0;stroke-linecap:butt;stroke-linejoin:round" /></g>  </g>
  <g
     id="g8414"
     transform="translate(210.37723,-7.6012)"
     style="stroke-linecap:butt;stroke-linejoin:round">
    <g
       word-spacing="normal"
       letter-spacing="normal"
       font-size-adjust="none"
       font-stretch="normal"
       font-weight="normal"
       font-variant="normal"
       font-style="normal"
       stroke-miterlimit="10.433"
       xml:space="preserve"
       transform="matrix(0.36,0,0,-0.36,-63,324)"
       id="g8412"
       style="font-style:normal;font-variant:normal;font-weight:normal;font-stretch:normal;letter-spacing:normal;word-spacing:normal;text-anchor:start;fill:none;fill-opacity:1;fill-rule:evenodd;stroke:#000000;stroke-linecap:butt;stroke-linejoin:round;stroke-miterlimit:10.43299961;stroke-dasharray:none;stroke-dashoffset:0;stroke-opacity:1"><path
         id="path8400"
         d="m 457.57,418.86 0.09,0.26 0.1,0.26 0.1,0.24 0.11,0.25 0.11,0.23 0.12,0.22 0.12,0.22 0.12,0.21 0.13,0.2 0.13,0.2 0.13,0.19 0.14,0.18 0.28,0.34 0.29,0.32 0.3,0.29 0.31,0.27 0.31,0.24 0.32,0.22 0.32,0.21 0.32,0.18 0.31,0.16 0.32,0.15 0.31,0.13 0.3,0.11 0.3,0.1 0.29,0.08 0.28,0.07 0.27,0.06 0.25,0.05 0.24,0.04 0.22,0.03 0.21,0.02 0.19,0.02 0.16,0.01 0.14,0.01 0.12,0.01 h 0.09 0.07 c 7.51,0 8.06,-8.72 8.06,-12.66 0,-3.05 -0.25,-3.89 -0.59,-4.89 -1.1,-3.63 -2.6,-9.41 -2.6,-10.7 0,-0.55 0.25,-0.91 0.66,-0.91 0.64,0 1.05,1.11 1.59,3 1.14,4.19 1.64,7.02 1.85,8.56 0.09,0.66 0.18,1.3 0.39,1.96 1.59,4.92 4.78,12.34 6.78,16.28 0.34,0.59 0.94,1.7 0.94,1.89 0,0.5 -0.49,0.5 -0.6,0.5 -0.14,0 -0.45,0 -0.59,-0.35 -2.59,-4.73 -4.58,-9.71 -6.58,-14.75 -0.05,1.55 -0.09,5.33 -2.05,10.18 -1.18,3.03 -3.18,5.46 -6.62,5.46 -6.22,0 -9.72,-7.56 -9.72,-9.1 0,-0.5 0.45,-0.5 0.95,-0.5 z"
         inkscape:connector-curvature="0"
         style="fill:#000000;stroke-width:0;stroke-linecap:butt;stroke-linejoin:round" /><path
         id="path8402"
         d="m 532.23,422.5 h 0.14 0.14 0.15 l 0.07,0.01 h 0.07 l 0.08,0.01 0.07,0.01 0.07,0.01 0.07,0.01 0.07,0.01 0.06,0.02 0.07,0.02 0.06,0.02 0.06,0.02 0.06,0.03 0.05,0.03 0.06,0.04 0.05,0.03 0.04,0.05 0.05,0.04 0.04,0.05 0.02,0.03 0.01,0.03 0.02,0.02 0.02,0.03 0.01,0.03 0.01,0.04 0.01,0.03 0.02,0.04 0.01,0.03 v 0.04 l 0.01,0.04 0.01,0.04 v 0.04 l 0.01,0.04 v 0.04 0.05 c 0,1 -0.95,1 -1.64,1 h -29.85 c -0.7,0 -1.64,0 -1.64,-1 0,-0.98 0.94,-0.98 1.69,-0.98 z"
         inkscape:connector-curvature="0"
         style="fill:#000000;stroke-width:0;stroke-linecap:butt;stroke-linejoin:round" /><path
         id="path8404"
         d="m 532.28,412.82 h 0.06 0.07 l 0.14,0.01 h 0.13 0.07 l 0.07,0.01 0.07,0.01 h 0.07 l 0.07,0.01 0.07,0.02 0.07,0.01 0.06,0.02 0.06,0.02 0.07,0.02 0.06,0.02 0.05,0.03 0.06,0.03 0.05,0.04 0.05,0.04 0.05,0.04 0.04,0.05 0.02,0.02 0.02,0.03 0.02,0.02 0.01,0.03 0.02,0.03 0.02,0.03 0.01,0.03 0.01,0.03 0.01,0.04 0.02,0.03 0.01,0.04 v 0.04 l 0.01,0.04 0.01,0.04 v 0.04 l 0.01,0.04 v 0.05 0.04 c 0,1 -0.95,1 -1.69,1 h -29.75 c -0.75,0 -1.69,0 -1.69,-1 0,-1 0.94,-1 1.64,-1 z"
         inkscape:connector-curvature="0"
         style="fill:#000000;stroke-width:0;stroke-linecap:butt;stroke-linejoin:round" /><path
         id="path8406"
         d="m 565.2,438.09 v 0.05 l -0.01,0.06 v 0.05 0.05 0.05 0.05 0.04 0.05 0.04 0.04 0.04 0.04 0.04 l -0.01,0.03 v 0.04 0.03 l -0.01,0.07 -0.01,0.06 -0.01,0.05 -0.02,0.05 -0.01,0.05 -0.02,0.04 -0.02,0.04 -0.03,0.03 -0.03,0.03 -0.03,0.03 -0.03,0.03 -0.04,0.02 -0.05,0.02 -0.02,0.01 -0.03,0.01 h -0.02 l -0.03,0.01 -0.03,0.01 h -0.03 l -0.03,0.01 h -0.03 l -0.03,0.01 h -0.04 -0.03 l -0.04,0.01 h -0.04 -0.04 -0.04 -0.04 -0.05 l -0.04,0.01 h -0.05 -0.05 -0.05 -0.06 c -3.09,-3.19 -7.46,-3.19 -9.06,-3.19 v -1.55 c 1,0 3.94,0 6.52,1.3 v -25.81 c 0,-1.8 -0.14,-2.39 -4.63,-2.39 h -1.59 v -1.55 c 1.75,0.16 6.08,0.16 8.06,0.16 2,0 6.33,0 8.08,-0.16 v 1.55 h -1.59 c -4.49,0 -4.64,0.54 -4.64,2.39 z"
         inkscape:connector-curvature="0"
         style="fill:#000000;stroke-width:0;stroke-linecap:butt;stroke-linejoin:round" /><path
         id="path8408"
         d="m 585.07,408.84 v 0.13 l -0.01,0.14 -0.02,0.13 -0.02,0.13 -0.03,0.12 -0.04,0.13 -0.04,0.12 -0.04,0.12 -0.06,0.12 -0.06,0.11 -0.06,0.11 -0.07,0.11 -0.07,0.1 -0.08,0.1 -0.08,0.1 -0.09,0.09 -0.09,0.09 -0.1,0.08 -0.1,0.08 -0.1,0.07 -0.11,0.07 -0.11,0.07 -0.11,0.06 -0.12,0.05 -0.12,0.05 -0.12,0.04 -0.13,0.04 -0.13,0.03 -0.13,0.02 -0.13,0.02 -0.13,0.01 h -0.14 c -1.43,0 -2.64,-1.2 -2.64,-2.64 0,-1.44 1.21,-2.64 2.64,-2.64 1.46,0 2.64,1.2 2.64,2.64 z"
         inkscape:connector-curvature="0"
         style="fill:#000000;stroke-width:0;stroke-linecap:butt;stroke-linejoin:round" /><path
         id="path8410"
         d="m 603.95,438.09 v 0.05 0.06 0.05 0.05 0.05 0.05 0.04 0.05 0.04 l -0.01,0.04 v 0.04 0.04 0.04 0.03 l -0.01,0.04 v 0.03 l -0.01,0.07 -0.01,0.06 -0.01,0.05 -0.01,0.05 -0.02,0.05 -0.02,0.04 -0.02,0.04 -0.02,0.03 -0.03,0.03 -0.03,0.03 -0.04,0.03 -0.04,0.02 -0.04,0.02 -0.03,0.01 -0.02,0.01 h -0.03 l -0.02,0.01 -0.03,0.01 h -0.03 l -0.03,0.01 h -0.03 l -0.04,0.01 h -0.03 -0.04 l -0.04,0.01 h -0.03 -0.04 -0.05 -0.04 -0.04 l -0.05,0.01 h -0.05 -0.05 -0.05 -0.05 c -3.09,-3.19 -7.47,-3.19 -9.06,-3.19 v -1.55 c 1,0 3.93,0 6.51,1.3 v -25.81 c 0,-1.8 -0.14,-2.39 -4.62,-2.39 h -1.6 v -1.55 c 1.75,0.16 6.08,0.16 8.06,0.16 2,0 6.33,0 8.08,-0.16 v 1.55 h -1.59 c -4.49,0 -4.64,0.54 -4.64,2.39 z"
         inkscape:connector-curvature="0"
         style="fill:#000000;stroke-width:0;stroke-linecap:butt;stroke-linejoin:round" /></g>  </g>
  <path
     sodipodi:nodetypes="ccc"
     inkscape:connector-curvature="0"
     id="path8750"
     d="M 213,134.25 279.75,165 h 24"
     style="fill:none;stroke:#000000;stroke-width:2;stroke-linecap:butt;stroke-linejoin:bevel;stroke-miterlimit:4;stroke-dasharray:none;stroke-dashoffset:0;stroke-opacity:1;marker-start:url(#marker8754)" />
  <flowRoot
     xml:space="preserve"
     id="flowRoot9491"
     style="fill:black;fill-opacity:1;stroke:none;font-family:'Latin Modern Roman';font-style:normal;font-weight:normal;font-size:13.33333333px;line-height:1.25;letter-spacing:0px;word-spacing:0px;-inkscape-font-specification:'Latin Modern Roman, ';font-stretch:normal;font-variant:normal;"><flowRegion
       id="flowRegion9493"
       style="-inkscape-font-specification:'Latin Modern Roman, ';font-family:'Latin Modern Roman';font-weight:normal;font-style:normal;font-stretch:normal;font-variant:normal;font-size:13.33333333px;"><rect
         id="rect9495"
         width="323"
         height="97"
         x="-118"
         y="203"
         style="stroke-linecap:butt;stroke-linejoin:round;-inkscape-font-specification:'Latin Modern Roman, ';font-family:'Latin Modern Roman';font-weight:normal;font-style:normal;font-stretch:normal;font-variant:normal;font-size:13.33333333px;" /></flowRegion><flowPara
       id="flowPara9497"></flowPara></flowRoot>  <text
     xml:space="preserve"
     style="font-style:normal;font-variant:normal;font-weight:normal;font-stretch:normal;font-size:10px;line-height:1.25;font-family:'Latin Modern Roman';-inkscape-font-specification:'Latin Modern Roman, ';letter-spacing:0px;word-spacing:0px;fill:#000000;fill-opacity:1;stroke:none;stroke-width:0.75;stroke-linecap:butt;stroke-linejoin:round"
     x="193.04013"
     y="246.69669"
     id="text9501"><tspan
       sodipodi:role="line"
       id="tspan9499"
       style="font-size:14px;stroke-width:0.75;stroke-linecap:butt;stroke-linejoin:round"
       x="193.04013"
       y="246.69669">(K-kg-mol/kg)</tspan></text>
  <text
     id="text9505"
     y="33.020779"
     x="-84.980629"
     style="font-style:normal;font-variant:normal;font-weight:normal;font-stretch:normal;font-size:10px;line-height:1.25;font-family:'Latin Modern Roman';-inkscape-font-specification:'Latin Modern Roman, ';letter-spacing:0px;word-spacing:0px;fill:#000000;fill-opacity:1;stroke:none;stroke-width:0.75;stroke-linecap:butt;stroke-linejoin:round"
     xml:space="preserve"
     transform="rotate(-90)"><tspan
       y="33.020779"
       x="-84.980629"
       style="font-size:14px;stroke-width:0.75;stroke-linecap:butt;stroke-linejoin:round"
       id="tspan9503"
       sodipodi:role="line">(s)</tspan></text>
</svg>
