<?xml version="1.0" encoding="UTF-8" standalone="no"?>
<!-- Created with Inkscape (http://www.inkscape.org/) -->

<svg
   xmlns:dc="http://purl.org/dc/elements/1.1/"
   xmlns:cc="http://creativecommons.org/ns#"
   xmlns:rdf="http://www.w3.org/1999/02/22-rdf-syntax-ns#"
   xmlns:svg="http://www.w3.org/2000/svg"
   xmlns="http://www.w3.org/2000/svg"
   xmlns:sodipodi="http://sodipodi.sourceforge.net/DTD/sodipodi-0.dtd"
   xmlns:inkscape="http://www.inkscape.org/namespaces/inkscape"
   width="368.4614"
   height="281.04224"
   id="svg2"
   version="1.1"
   inkscape:version="0.48.2 r9819"
   sodipodi:docname="New document 1">
  <defs
     id="defs4">
    <clipPath
       id="clipPath3166"
       clipPathUnits="userSpaceOnUse">
      <path
         id="path3168"
         d="m 948.332,378.332 2740,0 0,2740.84 -2740,0 0,-2740.84 z"
         inkscape:connector-curvature="0" />
    </clipPath>
    <clipPath
       id="clipPath3020"
       clipPathUnits="userSpaceOnUse">
      <path
         id="path3022"
         d="m 0,9.16797 4480,0 0,3360.83003 -4480,0 L 0,9.16797 z"
         inkscape:connector-curvature="0" />
    </clipPath>
  </defs>
  <sodipodi:namedview
     id="base"
     pagecolor="#ffffff"
     bordercolor="#666666"
     borderopacity="1.0"
     inkscape:pageopacity="0.0"
     inkscape:pageshadow="2"
     inkscape:zoom="1.23"
     inkscape:cx="113.11778"
     inkscape:cy="150.13076"
     inkscape:document-units="px"
     inkscape:current-layer="g3012"
     showgrid="false"
     inkscape:window-width="1343"
     inkscape:window-height="1014"
     inkscape:window-x="2074"
     inkscape:window-y="460"
     inkscape:window-maximized="0"
     fit-margin-top="0"
     fit-margin-left="0"
     fit-margin-right="0"
     fit-margin-bottom="0" />
  <metadata
     id="metadata7">
    <rdf:RDF>
      <cc:Work
         rdf:about="">
        <dc:format>image/svg+xml</dc:format>
        <dc:type
           rdf:resource="http://purl.org/dc/dcmitype/StillImage" />
        <dc:title></dc:title>
      </cc:Work>
    </rdf:RDF>
  </metadata>
  <g
     inkscape:label="Layer 1"
     inkscape:groupmode="layer"
     id="layer1"
     transform="translate(-194.70824,-274.19952)">
    <g
       transform="matrix(1.25,0,0,-1.25,122.85714,657.84577)"
       inkscape:label="ink_ext_XXXXXX"
       id="g3012">
      <path
         sodipodi:nodetypes="cssc"
         inkscape:connector-curvature="0"
         id="path4108"
         d="m 94.908675,184.4247 c -3.70674,2.29475 -5.081903,-3.95758 -10.786333,-6.29915 -4.127526,-1.69428 -13.166219,-1.52483 -16.733475,-1.65142 -5.873728,-0.20844 -8.545944,-0.29768 -8.545944,-0.29768"
         style="fill:none;stroke:#000000;stroke-width:2.4000001;stroke-linecap:round;stroke-linejoin:miter;stroke-miterlimit:4;stroke-opacity:1;stroke-dasharray:none" />
      <path
         style="fill:none;stroke:#000000;stroke-width:2.4000001;stroke-linecap:round;stroke-linejoin:miter;stroke-miterlimit:4;stroke-opacity:1;stroke-dasharray:none"
         d="m 95.17012,204.64887 c -3.70674,-2.29475 -5.081903,3.95758 -10.786333,6.29915 -4.127526,1.69428 -13.166219,1.52483 -16.733475,1.65142 -5.873728,0.20844 -8.545944,0.29768 -8.545944,0.29768"
         id="path3338"
         inkscape:connector-curvature="0"
         sodipodi:nodetypes="cssc" />
      <g
         id="g3162"
         transform="scale(0.1,0.1)">
        <g
           id="g3164"
           clip-path="url(#clipPath3166)">
          <path
             inkscape:connector-curvature="0"
             d="m 948.332,2042.5 35.836,52.5 77.502,108.33 22.5,30 27.5,35 30,34.17 31.66,35 35,36.67 38.34,36.66 43.33,39.17 47.5,40 54.17,41.67 60,43.33 67.5,45 76.66,45.83 85.84,46.67 96.66,46.67 110,47.5 123.34,46.66 140.83,45 159.17,42.5 180,38.34 205,32.5 233.33,25 265.83,13.33 316.67,9.17"
             style="fill:none;stroke:#ff0000;stroke-width:20;stroke-linecap:butt;stroke-linejoin:round;stroke-miterlimit:10;stroke-opacity:1;stroke-dasharray:none"
             id="path3170" />
          <path
             inkscape:connector-curvature="0"
             d="m 948.332,1846.67 35.836,-52.5 77.502,-107.5 22.5,-30 27.5,-35 30,-35 31.66,-35 35,-35.84 38.34,-37.5 43.33,-38.33 47.5,-40.83 54.17,-41.67 60,-43.33 67.5,-44.17 76.66,-45.83 85.84,-46.67 96.66,-47.5 110,-46.67 123.34,-46.66 140.83,-45.002 159.17,-42.5 180,-38.336 205,-32.5 233.33,-25 265.83,-14.164 316.67,-8.336"
             style="fill:none;stroke:#ff0000;stroke-width:20;stroke-linecap:butt;stroke-linejoin:round;stroke-miterlimit:10;stroke-opacity:1;stroke-dasharray:none"
             id="path3172" />
          <path
             inkscape:connector-curvature="0"
             d="m 948.332,2042.5 27.5,19.17 49.998,33.33 10,5.83 11.67,7.5 10,5.84 10.83,5.83 10,5 10.84,5 10,5 10.83,5 10.83,4.17 11.67,4.16 11.67,4.17 11.66,3.33 13.34,3.34 12.5,3.33 13.33,3.33 14.17,2.5 15,2.5 15.83,2.5 15.83,1.67 16.67,1.67 17.5,0.83 18.33,0 20,0.83"
             style="fill:none;stroke:#0000ff;stroke-width:20;stroke-linecap:butt;stroke-linejoin:round;stroke-miterlimit:10;stroke-opacity:1;stroke-dasharray:none"
             id="path3174" />
          <path
             inkscape:connector-curvature="0"
             d="m 948.332,1846.67 27.5,-18.34 49.998,-33.33 10,-6.67 11.67,-6.66 10,-6.67 10.83,-5.83 10,-5 10.84,-5 10,-5 10.83,-4.17 10.83,-4.17 11.67,-4.16 11.67,-4.17 11.66,-4.17 13.34,-3.33 12.5,-3.33 13.33,-2.5 14.17,-3.34 15,-2.5 15.83,-1.66 15.83,-1.67 16.67,-1.67 17.5,-0.83 18.33,-0.83 20,0"
             style="fill:none;stroke:#0000ff;stroke-width:20;stroke-linecap:butt;stroke-linejoin:round;stroke-miterlimit:10;stroke-opacity:1;stroke-dasharray:none"
             id="path3176" />
        </g>
      </g>
      <path
         style="fill:none;stroke:#000000;stroke-width:2.4000001;stroke-linecap:round;stroke-linejoin:miter;stroke-miterlimit:4;stroke-opacity:1;stroke-dasharray:none"
         d="m 58.680877,212.89859 0,-36.73307"
         id="path4110"
         inkscape:connector-curvature="0" />
      <text
         xml:space="preserve"
         style="font-size:19.20000076px;font-style:normal;font-variant:normal;font-weight:bold;font-stretch:normal;line-height:125%;letter-spacing:0px;word-spacing:0px;fill:#011cff;fill-opacity:1;stroke:none;font-family:Calibri;-inkscape-font-specification:Calibri Bold"
         x="133.90942"
         y="-189.4015"
         id="text4112"
         sodipodi:linespacing="125%"
         transform="scale(1,-1)"><tspan
           sodipodi:role="line"
           id="tspan4114"
           x="133.90942"
           y="-189.4015"
           style="font-weight:bold;fill:#011cff;fill-opacity:1;stroke:none;-inkscape-font-specification:Calibri Bold">Sea level</tspan></text>
      <text
         transform="scale(1,-1)"
         sodipodi:linespacing="125%"
         id="text4116"
         y="-284.36087"
         x="286.75494"
         style="font-size:19.20000076px;font-style:normal;font-variant:normal;font-weight:bold;font-stretch:normal;line-height:125%;letter-spacing:0px;word-spacing:0px;fill:#ff0101;fill-opacity:1;stroke:none;font-family:Calibri;-inkscape-font-specification:Calibri Bold"
         xml:space="preserve"><tspan
           style="font-weight:bold;fill:#ff0101;fill-opacity:1;stroke:none;-inkscape-font-specification:Calibri Bold"
           y="-284.36087"
           x="286.75494"
           id="tspan4118"
           sodipodi:role="line">Vacuum</tspan></text>
    </g>
  </g>
</svg>
